<svg width="21" height="20" viewBox="0 0 21 20" fill="none" xmlns="http://www.w3.org/2000/svg">
<path d="M1.66104 0.883883C2.14919 0.395728 2.94065 0.395728 3.42881 0.883883L19.3387 16.7938C19.8269 17.2819 19.8269 18.0734 19.3387 18.5616C18.8506 19.0497 18.0591 19.0497 17.5709 18.5616L1.66104 2.65165C1.17288 2.1635 1.17288 1.37204 1.66104 0.883883Z" fill="#2F2E41"/>
<path d="M19.3388 0.883939C19.8269 1.37209 19.8269 2.16355 19.3388 2.65171L3.42887 18.5616C2.94072 19.0498 2.14926 19.0498 1.6611 18.5616C1.17295 18.0735 1.17295 17.282 1.6611 16.7938L17.571 0.883939C18.0592 0.395784 18.8506 0.395783 19.3388 0.883939Z" fill="#2F2E41"/>
</svg>
