<svg width="47" height="31" viewBox="0 0 47 31" fill="none" xmlns="http://www.w3.org/2000/svg">
<path d="M40.0795 -0.0296138C43.9054 -0.0296135 46.9806 3.08601 46.9806 6.96136L46.9806 12.914C46.9806 16.7898 43.905 19.905 40.0795 19.905L34.9549 19.905C35.5017 23.7812 36.0481 27.1038 37.1412 30.98C33.1639 30.98 27.302 18.8598 27.302 13.26L27.302 6.96126C27.302 3.08551 30.3775 -0.0297157 34.203 -0.0297154L40.0795 -0.0296138ZM12.7483 -0.0296162C16.5741 -0.0296159 19.6493 3.08601 19.6493 6.96135L19.6493 12.914C19.6493 16.7898 16.5738 19.905 12.7483 19.905L7.62365 19.905C8.17043 23.7812 8.7168 27.1038 9.80995 30.98C5.83267 30.98 -0.0292958 18.8598 -0.0292953 13.26L-0.0292948 6.96125C-0.0292944 3.08551 3.04625 -0.0297181 6.87175 -0.0297178L12.7483 -0.0296162Z" fill="#00EA99"/>
</svg>
