<svg width="53" height="40" viewBox="0 0 53 40" fill="none" xmlns="http://www.w3.org/2000/svg">
<path d="M43.5 9C41.4068 9 40 7.19499 40 4.50029C40 1.80559 41.4068 0 43.5 0C45.5932 0 47 1.8085 47 4.50029C47 7.19208 45.5932 9 43.5 9ZM43.5 1.16452C41.6937 1.16452 41.0526 2.96137 41.0526 4.50029C41.0526 6.0392 41.6937 7.83548 43.5 7.83548C45.3063 7.83548 45.9474 6.0392 45.9474 4.50029C45.9474 2.96137 45.3058 1.16452 43.5 1.16452Z" fill="#1FECA5"/>
<path d="M47.5 39C47.3674 39 47.2402 38.946 47.1464 38.8498C47.0527 38.7536 47 38.6232 47 38.4872V23.5128C47 23.3768 47.0527 23.2464 47.1464 23.1502C47.2402 23.054 47.3674 23 47.5 23C47.6326 23 47.7598 23.054 47.8536 23.1502C47.9473 23.2464 48 23.3768 48 23.5128V38.4872C48 38.6232 47.9473 38.7536 47.8536 38.8498C47.7598 38.946 47.6326 39 47.5 39Z" fill="#1FECA5"/>
<path d="M38.5 39C38.3674 39 38.2402 38.94 38.1464 38.8333C38.0527 38.7266 38 38.5819 38 38.431V22.569C38 22.4181 38.0527 22.2734 38.1464 22.1667C38.2402 22.0599 38.3674 22 38.5 22C38.6326 22 38.7598 22.0599 38.8536 22.1667C38.9473 22.2734 39 22.4181 39 22.569V38.431C39 38.5819 38.9473 38.7266 38.8536 38.8333C38.7598 38.94 38.6326 39 38.5 39Z" fill="#1FECA5"/>
<path d="M44.4851 11H43.5149C43.3784 11 43.2474 10.9473 43.1508 10.8536C43.0543 10.7598 43 10.6326 43 10.5C43 10.3674 43.0543 10.2402 43.1508 10.1464C43.2474 10.0527 43.3784 10 43.5149 10H44.4851C44.6216 10 44.7526 10.0527 44.8492 10.1464C44.9457 10.2402 45 10.3674 45 10.5C45 10.6326 44.9457 10.7598 44.8492 10.8536C44.7526 10.9473 44.6216 11 44.4851 11Z" fill="#1FECA5"/>
<path d="M42.5368 18C42.5075 18 42.4783 17.9973 42.4494 17.9917C42.3799 17.9782 42.3133 17.9486 42.2535 17.9045C42.1936 17.8604 42.1417 17.8028 42.1006 17.7349C42.0596 17.6671 42.0302 17.5902 42.0141 17.5089C41.9981 17.4275 41.9957 17.3431 42.0071 17.2607L42.9346 10.5336C42.9576 10.367 43.0354 10.2181 43.1508 10.1196C43.2663 10.0211 43.41 9.9811 43.5504 10.0084C43.6907 10.0356 43.8162 10.1279 43.8992 10.2649C43.9822 10.402 44.0159 10.5725 43.993 10.7391L43.0654 17.4668C43.0449 17.6156 42.9804 17.7509 42.8836 17.8486C42.7868 17.9462 42.6639 17.9999 42.5368 18Z" fill="#1FECA5"/>
<path d="M46.2123 23H36.7519C35.8075 23 35.0827 22.7085 34.5989 22.1353C33.829 21.2248 34.012 19.9923 34.0358 19.8551L35.0522 13.9398C35.2572 12.7458 35.8362 11.6957 36.6823 10.9822C37.4728 10.2973 38.4992 9.94732 39.5436 10.0064H40.2195C40.3525 10.0063 40.4818 10.0497 40.5879 10.1298C40.6939 10.2099 40.7709 10.3225 40.807 10.4504L42.63 16.9048L46.5881 10.3065C46.6423 10.2162 46.7189 10.1414 46.8105 10.0895C46.9021 10.0375 47.0056 10.0102 47.111 10.0101H47.5215C48.1353 10.0101 48.8466 10.0235 49.5207 10.1876C49.6001 10.205 49.6752 10.2381 49.7416 10.2849C49.808 10.3317 49.8644 10.3913 49.9074 10.4602C49.9504 10.5291 49.9793 10.6059 49.9922 10.6861C50.0052 10.7663 50.0019 10.8482 49.9828 10.9271C49.9636 11.0061 49.9288 11.0804 49.8805 11.1457C49.8322 11.211 49.7714 11.266 49.7015 11.3075C49.6316 11.349 49.5542 11.3761 49.4737 11.3872C49.3932 11.3984 49.3113 11.3934 49.2328 11.3724C48.6898 11.2407 48.0645 11.2297 47.5215 11.2297H47.4569L43.6372 17.5951C43.5362 17.7792 43.3873 17.9326 43.2062 18.0389C43.0251 18.1453 42.8186 18.2008 42.6086 18.1994C42.393 18.1993 42.1817 18.1401 41.9974 18.0284C41.813 17.9168 41.6628 17.7568 41.5629 17.5658C41.5432 17.5281 41.5272 17.4885 41.5153 17.4475L39.7559 11.2273H39.5119C38.7188 11.1925 38.055 11.4164 37.4657 11.914C36.8385 12.4421 36.4078 13.2349 36.251 14.1453L35.2346 20.0606C35.2346 20.0649 35.1126 20.8644 35.5311 21.3529C35.7751 21.637 36.1833 21.7797 36.7513 21.7797H46.2117C46.3735 21.7797 46.5287 21.844 46.6431 21.9584C46.7575 22.0727 46.8218 22.2278 46.8218 22.3896C46.8218 22.5513 46.7575 22.7064 46.6431 22.8208C46.5287 22.9351 46.3735 22.9994 46.2117 22.9994L46.2123 23Z" fill="#1FECA5"/>
<path d="M46.6947 23C46.5948 23 46.5221 22.9949 46.4839 22.992C45.614 22.9395 43.3945 21.411 43.0917 21.198C42.9172 21.1009 41.2617 20.2182 38.5969 20.1811C38.5092 20.1799 38.4227 20.1607 38.3436 20.1249C38.2644 20.0891 38.1945 20.0375 38.1386 19.9737C38.0827 19.9099 38.0422 19.8354 38.0199 19.7553C37.9976 19.6753 37.994 19.5917 38.0094 19.5102L38.5945 16.395C38.6084 16.3211 38.6375 16.2505 38.6803 16.1873C38.723 16.1241 38.7786 16.0694 38.8438 16.0264C38.909 15.9834 38.9825 15.9529 39.0602 15.9367C39.1379 15.9205 39.2182 15.9189 39.2966 15.9319C39.3749 15.9449 39.4498 15.9724 39.5169 16.0127C39.584 16.053 39.642 16.1054 39.6876 16.1669C39.7333 16.2283 39.7656 16.2976 39.7828 16.3709C39.8 16.4441 39.8017 16.5198 39.7879 16.5937L39.3233 19.0671C42.0649 19.2475 43.6847 20.1982 43.755 20.2422C44.4928 20.7818 46.178 21.7918 46.5596 21.8529C46.6384 21.8586 47.6088 21.9426 48.6065 21.1483C49.8453 20.1617 50.5988 18.2209 50.7872 15.5351C50.7924 15.4601 50.8132 15.3868 50.8484 15.3194C50.8836 15.252 50.9326 15.1918 50.9925 15.1422C51.0524 15.0926 51.1221 15.0547 51.1975 15.0305C51.273 15.0063 51.3528 14.9963 51.4323 15.0012C51.5119 15.0061 51.5896 15.0257 51.6611 15.0589C51.7327 15.0921 51.7966 15.1382 51.8491 15.1947C51.9017 15.2511 51.942 15.3168 51.9677 15.388C51.9933 15.4591 52.0039 15.5343 51.9987 15.6093C51.7843 18.6817 50.8944 20.848 49.354 22.0505C48.2667 22.8955 47.1684 23 46.6947 23Z" fill="#1FECA5"/>
<path d="M45.8152 19C45.7729 19 45.7307 18.9932 45.6896 18.9797C44.473 18.5975 43.2248 18.4284 41.9761 18.4763L39.5514 18.549C39.4806 18.5512 39.4102 18.5346 39.3442 18.5001C39.2782 18.4656 39.2179 18.414 39.1667 18.3481C39.1155 18.2822 39.0745 18.2033 39.0459 18.1161C39.0173 18.0288 39.0018 17.9348 39.0001 17.8394C38.9985 17.744 39.0108 17.6491 39.0364 17.5602C39.062 17.4712 39.1003 17.3899 39.1492 17.3209C39.1981 17.2519 39.2566 17.1966 39.3213 17.1581C39.3861 17.1195 39.4558 17.0986 39.5266 17.0964L41.9346 17.0238C43.1176 16.9743 44.3009 17.1084 45.4612 17.4232L45.951 15.4913C45.9973 15.309 46.0954 15.1589 46.2238 15.0741C46.3522 14.9893 46.5003 14.9768 46.6355 15.0392C46.7708 15.1016 46.8821 15.2339 46.945 15.4069C47.0079 15.58 47.0173 15.7796 46.971 15.9619L46.3244 18.5039C46.2886 18.648 46.2203 18.7734 46.1289 18.8624C46.0376 18.9513 45.9279 18.9995 45.8152 19Z" fill="#1FECA5"/>
<path d="M43.5 39C43.3674 39 43.2402 38.9427 43.1464 38.8408C43.0527 38.7389 43 38.6007 43 38.4565V29.5435C43 29.3993 43.0527 29.2611 43.1464 29.1592C43.2402 29.0573 43.3674 29 43.5 29C43.6326 29 43.7598 29.0573 43.8536 29.1592C43.9473 29.2611 44 29.3993 44 29.5435V38.4565C44 38.6007 43.9473 38.7389 43.8536 38.8408C43.7598 38.9427 43.6326 39 43.5 39Z" fill="#1FECA5"/>
<path d="M50.9517 15C50.7814 15.0003 50.6129 14.967 50.456 14.9021C50.2991 14.8371 50.1571 14.7418 50.0384 14.6219L48.3703 12.9473C48.1328 12.7056 48 12.3826 48 12.0465C48 11.7104 48.1328 11.3875 48.3703 11.1457L49.1351 10.3781C49.2538 10.2582 49.3958 10.1629 49.5527 10.0979C49.7096 10.033 49.8781 9.99967 50.0483 10C50.2186 9.99964 50.3871 10.0329 50.544 10.0979C50.7009 10.1628 50.8429 10.2581 50.9616 10.3781L52.6297 12.0527C52.8673 12.2944 53 12.6174 53 12.9535C53 13.2896 52.8673 13.6125 52.6297 13.8543L51.8649 14.6219C51.7462 14.7418 51.6042 14.8371 51.4473 14.902C51.2904 14.967 51.1219 15.0003 50.9517 15ZM50.0483 11.0793C50.0243 11.0791 50.0005 11.0839 49.9783 11.0932C49.9562 11.1025 49.9363 11.1161 49.9198 11.1333L49.1549 11.9009C49.1173 11.94 49.0963 11.9919 49.0963 12.0457C49.0963 12.0995 49.1173 12.1513 49.1549 12.1905L50.8236 13.8651C50.9132 13.9553 50.9885 13.9553 51.0802 13.8651L51.8451 13.0975C51.883 13.0585 51.9041 13.0066 51.9041 12.9527C51.9041 12.8988 51.883 12.8469 51.8451 12.8079L50.1769 11.1333C50.1604 11.1162 50.1404 11.1025 50.1183 11.0932C50.0962 11.0839 50.0724 11.0792 50.0483 11.0793Z" fill="#1FECA5"/>
<path d="M28.3333 39C28.1565 39 27.9869 38.9387 27.8619 38.8297C27.7369 38.7206 27.6667 38.5728 27.6667 38.4185V19.1629C27.4899 19.1629 27.3203 19.1017 27.1953 18.9926C27.0702 18.8836 27 18.7357 27 18.5815C27 18.4272 27.0702 18.2794 27.1953 18.1703C27.3203 18.0613 27.4899 18 27.6667 18H28.3333C28.5101 18 28.6797 18.0613 28.8047 18.1703C28.9298 18.2794 29 18.4272 29 18.5815V38.4185C29 38.5728 28.9298 38.7206 28.8047 38.8297C28.6797 38.9387 28.5101 39 28.3333 39Z" fill="#1FECA5"/>
<path d="M33.5 39C33.3674 39 33.2402 38.9363 33.1464 38.823C33.0527 38.7097 33 38.556 33 38.3957V29.6043C33 29.444 33.0527 29.2903 33.1464 29.177C33.2402 29.0637 33.3674 29 33.5 29C33.6326 29 33.7598 29.0637 33.8536 29.177C33.9473 29.2903 34 29.444 34 29.6043V38.3957C34 38.556 33.9473 38.7097 33.8536 38.823C33.7598 38.9363 33.6326 39 33.5 39Z" fill="#1FECA5"/>
<path d="M26.4 31H24.6C24.4409 31 24.2883 30.9374 24.1757 30.8259C24.0632 30.7144 24 30.5633 24 30.4056V18.8745C24 14.385 27.0954 11 31.2 11H35.4C35.5591 11 35.7117 11.0626 35.8243 11.1741C35.9368 11.2856 36 11.4367 36 11.5944C36 11.752 35.9368 11.9032 35.8243 12.0147C35.7117 12.1262 35.5591 12.1888 35.4 12.1888H31.2C27.7236 12.1888 25.2 15.0002 25.2 18.8745V29.8112H26.4C26.5591 29.8112 26.7117 29.8738 26.8243 29.9853C26.9368 30.0968 27 30.248 27 30.4056C27 30.5633 26.9368 30.7144 26.8243 30.8259C26.7117 30.9374 26.5591 31 26.4 31Z" fill="#1FECA5"/>
<path d="M33 10C30.6074 10 29 8.19127 29 5.50028C29 2.80928 30.6074 1 33 1C35.3926 1 37 2.80818 37 5.50028C37 8.19238 35.3926 10 33 10ZM33 2.10491C30.8914 2.10491 30.1429 3.93407 30.1429 5.50028C30.1429 7.06648 30.8914 8.89509 33 8.89509C35.1086 8.89509 35.8571 7.06593 35.8571 5.50028C35.8571 3.93463 35.1091 2.10491 33 2.10491Z" fill="#1FECA5"/>
<path d="M17.2882 40C17.1529 40.0002 17.0186 39.9815 16.8903 39.9448C16.4563 39.8202 16.1191 39.4983 15.9662 39.0623L15.0393 36.8639C15.0113 36.8016 14.998 36.735 15.0002 36.6682C15.0025 36.6013 15.0202 36.5356 15.0524 36.4747C15.0846 36.4139 15.1305 36.3592 15.1876 36.3138C15.2447 36.2684 15.3117 36.2333 15.3847 36.2106C15.4577 36.1878 15.5353 36.1778 15.6128 36.1812C15.6904 36.1846 15.7664 36.2012 15.8364 36.2302C15.9064 36.2592 15.9689 36.3 16.0204 36.3501C16.0718 36.4001 16.1111 36.4586 16.136 36.5219L17.0735 38.7459C17.1318 38.9106 17.2088 38.9769 17.2596 38.992C17.3232 39.0096 17.4136 38.9603 17.4498 38.9377C17.7525 38.7454 17.9165 38.2517 17.7922 37.9021L17.007 35.6545C16.9835 35.591 16.975 35.5241 16.9818 35.4578C16.9887 35.3914 17.0108 35.3269 17.0469 35.268C17.083 35.209 17.1324 35.1569 17.1921 35.1145C17.2518 35.0722 17.3208 35.0405 17.3949 35.0213C17.469 35.0021 17.5468 34.9958 17.6237 35.0027C17.7007 35.0097 17.7753 35.0297 17.8432 35.0618C17.911 35.0938 17.9708 35.1371 18.0191 35.1892C18.0673 35.2413 18.103 35.3011 18.1241 35.3652L18.9082 37.6108C19.176 38.3642 18.8393 39.3034 18.1416 39.7469C17.896 39.9078 17.5968 39.9965 17.2882 40Z" fill="#1FECA5"/>
<path d="M8.49031 40C8.15008 40 7.82234 39.8775 7.5724 39.6567C6.90305 39.0751 6.80905 37.9367 7.35222 37.0083L8.91488 34.3133C8.95483 34.2436 9.00879 34.1822 9.07365 34.1325C9.13851 34.0828 9.213 34.0458 9.29284 34.0238C9.37268 34.0017 9.4563 33.9949 9.53888 34.0038C9.62147 34.0127 9.7014 34.0372 9.77408 34.0757C9.84676 34.1143 9.91076 34.1662 9.9624 34.2284C10.014 34.2907 10.0523 34.3621 10.075 34.4386C10.0977 34.5151 10.1044 34.595 10.0946 34.674C10.0849 34.7529 10.0589 34.8292 10.0183 34.8985L8.45435 37.5959C8.17046 38.0785 8.2449 38.6106 8.42029 38.7632C8.43234 38.776 8.44784 38.7854 8.4651 38.7903C8.48235 38.7952 8.50068 38.7954 8.51807 38.791C8.62532 38.7741 8.80448 38.6631 8.954 38.4061L10.8277 35.6943C10.8714 35.6244 10.9295 35.5636 10.9984 35.5157C11.0673 35.4679 11.1457 35.4339 11.2287 35.4157C11.3118 35.3976 11.3978 35.3957 11.4816 35.4103C11.5655 35.4248 11.6453 35.4554 11.7164 35.5002C11.7876 35.5451 11.8484 35.6033 11.8954 35.6712C11.9424 35.7392 11.9745 35.8155 11.9898 35.8957C12.005 35.9758 12.0032 36.0581 11.9843 36.1375C11.9655 36.217 11.9299 36.2919 11.88 36.3579L10.0315 39.0299C9.74006 39.5355 9.25366 39.8956 8.72374 39.9801C8.64665 39.993 8.56856 39.9996 8.49031 40Z" fill="#1FECA5"/>
<path d="M17.6932 40C17.5111 40.0015 17.3358 39.9393 17.2058 39.8271C17.0758 39.7148 17.0018 39.5617 17 39.4014C16.9983 39.2412 17.069 39.0868 17.1965 38.9724C17.3241 38.858 17.4981 38.7929 17.6802 38.7914C19.6715 38.7576 20.3019 38.3491 20.4996 38.1092C20.637 37.9412 20.6631 37.7284 20.5752 37.4752L19.9984 35.7875C19.9708 35.7111 19.9607 35.6306 19.9688 35.5508C19.9768 35.4709 20.0029 35.3933 20.0454 35.3224C20.0879 35.2515 20.146 35.1887 20.2163 35.1378C20.2866 35.0868 20.3677 35.0487 20.455 35.0256C20.5422 35.0025 20.6338 34.9949 20.7243 35.0033C20.8149 35.0117 20.9027 35.0358 20.9826 35.0743C21.0625 35.1128 21.1329 35.1649 21.1897 35.2276C21.2465 35.2903 21.2885 35.3623 21.3134 35.4394L21.8895 37.1248C22.103 37.7387 22.0048 38.3412 21.6148 38.8168C20.9879 39.5782 19.7107 39.9649 17.7097 39.9988L17.6932 40Z" fill="#1FECA5"/>
<path d="M9.77157 40C9.4519 40 9.12507 39.9655 8.80131 39.9315L8.47909 39.8981C8.41112 39.8935 8.34467 39.8738 8.28366 39.8402C8.22266 39.8067 8.16833 39.7599 8.12386 39.7028C8.0794 39.6456 8.0457 39.5791 8.02475 39.5073C8.00381 39.4355 7.99603 39.3598 8.00189 39.2846C8.00775 39.2094 8.02713 39.1362 8.05887 39.0694C8.09061 39.0027 8.13409 38.9436 8.18673 38.8957C8.23938 38.8478 8.30014 38.8121 8.36544 38.7906C8.43073 38.7692 8.49923 38.7624 8.56692 38.7707L8.89783 38.8047C9.9881 38.9179 10.5289 38.9484 10.9022 38.3559L12.0527 36.2703C12.0879 36.2068 12.1339 36.1517 12.1883 36.108C12.2427 36.0643 12.3043 36.0329 12.3696 36.0156C12.4349 35.9982 12.5027 35.9953 12.569 36.0071C12.6353 36.0188 12.6989 36.0448 12.7562 36.0838C12.8134 36.1227 12.8631 36.1738 12.9026 36.234C12.942 36.2943 12.9703 36.3626 12.986 36.435C13.0016 36.5074 13.0042 36.5825 12.9936 36.656C12.9831 36.7295 12.9596 36.8 12.9244 36.8634L11.757 38.9773C11.2341 39.8093 10.5228 40 9.77157 40Z" fill="#1FECA5"/>
<path d="M13.1905 31C11.0371 31 9.35531 29.413 9.00524 27.051C8.98345 26.9042 9.03017 26.7559 9.13514 26.6388C9.24011 26.5217 9.39472 26.4453 9.56496 26.4266C9.7352 26.4078 9.90713 26.4481 10.0429 26.5386C10.1787 26.6291 10.2672 26.7624 10.289 26.9092C10.5569 28.7161 11.6958 29.884 13.1905 29.884C15.2793 29.884 17.3253 27.6201 17.6553 24.9406C17.8643 23.2604 17.4314 21.7225 16.4977 20.8264C16.1599 20.5022 15.5918 20.116 14.7894 20.116C12.8864 20.116 10.9012 22.2365 10.3641 24.8379C10.3292 24.9795 10.2318 25.1039 10.0926 25.1847C9.95337 25.2656 9.78313 25.2966 9.61786 25.2713C9.45259 25.2459 9.30521 25.1662 9.20684 25.0489C9.10846 24.9316 9.0668 24.7859 9.09065 24.6426C9.7429 21.4781 12.2458 19 14.7894 19C15.8002 19 16.7235 19.3739 17.4605 20.0803C18.6356 21.208 19.1889 23.0696 18.9423 25.0594C18.5308 28.3907 16.0033 31 13.1905 31Z" fill="#1FECA5"/>
<path d="M13.6974 37C12.1192 37 10.6786 36.3739 9.53038 35.1897C7.89189 33.4991 6.97112 30.7665 7.00069 27.693C7.00219 27.54 7.06277 27.3938 7.16927 27.2861C7.27576 27.1784 7.41956 27.118 7.56942 27.1181H7.57511C7.6498 27.1188 7.7236 27.1346 7.79232 27.1645C7.86103 27.1944 7.92331 27.2378 7.9756 27.2923C8.02788 27.3467 8.06914 27.4112 8.09703 27.4819C8.12492 27.5527 8.13889 27.6284 8.13814 27.7046C8.11027 30.4709 8.91275 32.9009 10.3391 34.372C11.2684 35.3314 12.4297 35.8384 13.6946 35.8384C17.6074 35.8384 21.2387 31.1748 21.7881 25.4425C22.1293 21.8951 21.3212 18.6381 19.6269 16.7308C18.7141 15.7028 17.6006 15.1627 16.4063 15.1627C12.937 15.1627 9.32962 19.6823 8.36563 25.2381C8.33923 25.3898 8.2549 25.5246 8.13118 25.6128C8.00745 25.701 7.85448 25.7355 7.70591 25.7085C7.55734 25.6815 7.42534 25.5954 7.33895 25.4691C7.25256 25.3427 7.21885 25.1865 7.24525 25.0348C8.31957 18.8478 12.3433 14 16.4063 14C17.9299 14 19.3352 14.6749 20.4692 15.952C22.3744 18.0974 23.2901 21.6878 22.9187 25.5569C22.3181 31.8688 18.179 37 13.6974 37Z" fill="#1FECA5"/>
<path d="M24.4137 18.997C24.3289 18.997 24.245 18.9812 24.1681 18.9505C24.0911 18.9199 24.0228 18.8752 23.9679 18.8196C23.9007 18.7462 23.8505 18.6625 23.8201 18.5729C23.2358 17.2397 21.8698 15.005 19.3072 15.005H15.5843C15.4293 15.005 15.2807 14.9521 15.1711 14.8578C15.0616 14.7636 15 14.6358 15 14.5025C15 14.3692 15.0616 14.2414 15.1711 14.1472C15.2807 14.0529 15.4293 14 15.5843 14H19.3066C21.7272 14 23.7178 15.499 24.9156 18.2211L24.9407 18.2769C24.9842 18.3536 25.0044 18.4385 24.9992 18.5237C24.994 18.6089 24.9637 18.6916 24.9111 18.764C24.8585 18.8363 24.7853 18.8959 24.6985 18.9372C24.6117 18.9785 24.5141 19.0001 24.4148 19L24.4137 18.997Z" fill="#1FECA5"/>
<path d="M18.666 36C18.497 35.9999 18.3344 35.9449 18.211 35.8463C18.0876 35.7476 18.0127 35.6127 18.0015 35.4686C17.9902 35.3246 18.0434 35.1823 18.1503 35.0705C18.2572 34.9588 18.4099 34.8858 18.5773 34.8665C20.675 34.624 22.414 33.4245 23.7458 31.3004C23.7871 31.2345 23.8433 31.1762 23.911 31.1288C23.9788 31.0815 24.0568 31.046 24.1406 31.0243C24.2244 31.0027 24.3124 30.9954 24.3995 31.0028C24.4866 31.0102 24.5711 31.0322 24.6483 31.0675C24.7255 31.1029 24.7937 31.1508 24.8492 31.2087C24.9046 31.2665 24.9462 31.3332 24.9715 31.4048C24.9968 31.4763 25.0054 31.5515 24.9967 31.6259C24.988 31.7003 24.9623 31.7725 24.9209 31.8384C23.3972 34.2676 21.2655 35.7051 18.756 35.9943C18.7262 35.9979 18.6961 35.9998 18.666 36Z" fill="#1FECA5"/>
<path d="M13.7274 28C13.5744 28 13.4276 27.9311 13.3194 27.8085C13.2112 27.6859 13.1504 27.5195 13.1504 27.3461C13.1504 27.1727 13.2112 27.0064 13.3194 26.8838C13.4276 26.7611 13.5744 26.6922 13.7274 26.6922C14.1706 26.6922 14.7326 25.9691 14.8307 24.9307C14.8988 24.2114 14.7263 23.7092 14.5422 23.4765C14.4077 23.3078 14.2912 23.3078 14.2537 23.3078C13.8411 23.3078 13.2802 24.0721 13.1481 25.0955C13.1258 25.2671 13.0443 25.4216 12.9215 25.5251C12.7987 25.6286 12.6446 25.6726 12.4932 25.6473C12.3417 25.6221 12.2053 25.5297 12.114 25.3906C12.0227 25.2514 11.9839 25.0768 12.0061 24.9052C12.2173 23.2764 13.2046 22 14.2537 22C14.4719 22.0023 14.6871 22.0573 14.8851 22.1613C15.0831 22.2652 15.2593 22.4158 15.402 22.6029C15.8555 23.175 16.0713 24.0976 15.979 25.07C15.8226 26.7132 14.8336 28 13.7274 28Z" fill="#1FECA5"/>
<path d="M5.41418 27H2.03451C1.93242 27 1.8321 26.9707 1.74348 26.9149C1.65486 26.8591 1.58102 26.7788 1.52926 26.6819L0.0809194 23.9723C0.0285494 23.8743 0.000637041 23.7628 1.07773e-05 23.6491C-0.000615486 23.5354 0.0260625 23.4235 0.0773491 23.3248C0.128636 23.2261 0.202711 23.1441 0.292063 23.0871C0.381415 23.03 0.482875 23 0.586169 23H3.96583C4.06797 23.0001 4.16833 23.0295 4.25696 23.0854C4.34558 23.1413 4.4194 23.2217 4.47108 23.3187L5.91943 26.0284C5.97165 26.1264 5.99944 26.2378 5.99999 26.3514C6.00054 26.465 5.97384 26.5767 5.92257 26.6753C5.8713 26.7739 5.79729 26.8559 5.70802 26.9129C5.61875 26.9699 5.51738 26.9999 5.41418 27ZM2.36978 25.7097H4.38961L3.62763 24.2903H1.60839L2.36978 25.7097Z" fill="#1FECA5"/>
<path d="M3.9656 29H0.586135C0.482847 29 0.381394 28.9775 0.292046 28.9347C0.202699 28.8919 0.128628 28.8304 0.0773446 28.7564C0.026061 28.6824 -0.000615451 28.5985 1.07766e-05 28.5133C0.000637004 28.428 0.0285478 28.3444 0.0809147 28.2709L1.52917 26.239C1.58086 26.1663 1.65466 26.106 1.74328 26.064C1.8319 26.0221 1.93225 26 2.03439 26H5.41386C5.51715 26 5.61861 26.0225 5.70795 26.0653C5.7973 26.1081 5.87136 26.1696 5.92265 26.2436C5.97393 26.3176 6.00062 26.4015 5.99999 26.4867C5.99936 26.572 5.97145 26.6556 5.91909 26.7291L4.47024 28.761C4.41861 28.8337 4.34489 28.8939 4.25638 28.9358C4.16788 28.9778 4.06764 28.9999 3.9656 29ZM1.61064 28.0324H3.62976L4.3917 26.9681H2.37199L1.61064 28.0324Z" fill="#1FECA5"/>
<path d="M13.4167 27H0.583333C0.428624 27 0.280252 26.9473 0.170856 26.8536C0.0614595 26.7598 0 26.6326 0 26.5C0 26.3674 0.0614595 26.2402 0.170856 26.1464C0.280252 26.0527 0.428624 26 0.583333 26H13.4167C13.5714 26 13.7197 26.0527 13.8291 26.1464C13.9385 26.2402 14 26.3674 14 26.5C14 26.6326 13.9385 26.7598 13.8291 26.8536C13.7197 26.9473 13.5714 27 13.4167 27Z" fill="#1FECA5"/>
</svg>
