<svg width="31" height="50" viewBox="0 0 31 50" fill="none" xmlns="http://www.w3.org/2000/svg">
<mask id="path-1-inside-1_2_1477" fill="white">
<path d="M15.4974 50C16.7776 49.999 18.0352 49.6621 19.1448 49.0229L27.5749 44.1506L28.6542 43.5266L28.6673 43.5188C29.3757 43.1074 29.964 42.5172 30.3733 41.8071C30.7826 41.097 30.9987 40.2918 31 39.4719V30.2627C31.0005 28.9046 30.7024 27.563 30.1268 26.3333C29.5512 25.1035 28.7122 24.0156 27.6694 23.147C27.4399 22.9526 27.2003 22.7704 26.9517 22.6011C25.4174 21.5557 23.6039 20.9977 21.748 21H9.24942C7.39264 20.9965 5.57815 21.5548 4.04395 22.6019C3.79542 22.7717 3.55584 22.9542 3.32619 23.1487C2.28329 24.0166 1.44448 25.1042 0.869542 26.3338C0.294606 27.5635 -0.00229691 28.905 1.26377e-05 30.2627V39.471C0.00121953 40.2912 0.217379 41.0966 0.626877 41.8069C1.03637 42.5172 1.62487 43.1075 2.33359 43.5188L11.8543 49.0229C12.9627 49.6613 14.2187 49.9982 15.4974 50ZM27.7106 41.8502L27.6432 41.8871L27.6292 41.8949L26.6112 42.4847L18.1828 47.3561C17.3666 47.8275 16.441 48.0757 15.4987 48.0757C14.5564 48.0757 13.6308 47.8275 12.8146 47.3561L3.29468 41.8529C2.87815 41.6113 2.53225 41.2645 2.29156 40.8471C2.05086 40.4298 1.9238 39.9565 1.92308 39.4746V30.2627C1.92187 29.1869 2.15767 28.1241 2.61368 27.15C3.06968 26.1759 3.73468 25.3145 4.56126 24.6271C4.7423 24.4739 4.93103 24.33 5.12671 24.196C6.34186 23.3669 7.77893 22.9249 9.24942 22.9279H21.7445C23.2148 22.9259 24.6516 23.3678 25.8672 24.196C26.0615 24.3293 26.2491 24.4723 26.4291 24.6245C27.2559 25.3125 27.9211 26.1744 28.3777 27.1488C28.8342 28.1232 29.0709 29.1864 29.0708 30.2627V39.4719C29.0705 39.953 28.9445 40.4257 28.7053 40.8429C28.466 41.2601 28.1219 41.6074 27.7071 41.8502H27.7106Z"/>
</mask>
<path d="M15.4974 50C16.7776 49.999 18.0352 49.6621 19.1448 49.0229L27.5749 44.1506L28.6542 43.5266L28.6673 43.5188C29.3757 43.1074 29.964 42.5172 30.3733 41.8071C30.7826 41.097 30.9987 40.2918 31 39.4719V30.2627C31.0005 28.9046 30.7024 27.563 30.1268 26.3333C29.5512 25.1035 28.7122 24.0156 27.6694 23.147C27.4399 22.9526 27.2003 22.7704 26.9517 22.6011C25.4174 21.5557 23.6039 20.9977 21.748 21H9.24942C7.39264 20.9965 5.57815 21.5548 4.04395 22.6019C3.79542 22.7717 3.55584 22.9542 3.32619 23.1487C2.28329 24.0166 1.44448 25.1042 0.869542 26.3338C0.294606 27.5635 -0.00229691 28.905 1.26377e-05 30.2627V39.471C0.00121953 40.2912 0.217379 41.0966 0.626877 41.8069C1.03637 42.5172 1.62487 43.1075 2.33359 43.5188L11.8543 49.0229C12.9627 49.6613 14.2187 49.9982 15.4974 50ZM27.7106 41.8502L27.6432 41.8871L27.6292 41.8949L26.6112 42.4847L18.1828 47.3561C17.3666 47.8275 16.441 48.0757 15.4987 48.0757C14.5564 48.0757 13.6308 47.8275 12.8146 47.3561L3.29468 41.8529C2.87815 41.6113 2.53225 41.2645 2.29156 40.8471C2.05086 40.4298 1.9238 39.9565 1.92308 39.4746V30.2627C1.92187 29.1869 2.15767 28.1241 2.61368 27.15C3.06968 26.1759 3.73468 25.3145 4.56126 24.6271C4.7423 24.4739 4.93103 24.33 5.12671 24.196C6.34186 23.3669 7.77893 22.9249 9.24942 22.9279H21.7445C23.2148 22.9259 24.6516 23.3678 25.8672 24.196C26.0615 24.3293 26.2491 24.4723 26.4291 24.6245C27.2559 25.3125 27.9211 26.1744 28.3777 27.1488C28.8342 28.1232 29.0709 29.1864 29.0708 30.2627V39.4719C29.0705 39.953 28.9445 40.4257 28.7053 40.8429C28.466 41.2601 28.1219 41.6074 27.7071 41.8502H27.7106Z" fill="white"/>
<path d="M15.4974 50L15.5038 58L15.4949 58L15.4859 58L15.4974 50ZM19.1448 49.0229L23.148 55.9493L23.1379 55.9551L19.1448 49.0229ZM27.5749 44.1506L31.5789 51.0765L31.5781 51.0769L27.5749 44.1506ZM28.6542 43.5266L32.772 50.3855L32.7153 50.4195L32.6582 50.4525L28.6542 43.5266ZM28.6673 43.5188L24.5495 36.6599L24.5997 36.6298L24.6504 36.6003L28.6673 43.5188ZM31 39.4719L39 39.4719L39 39.4843L31 39.4719ZM31 30.2627L23 30.2627L23 30.2596L31 30.2627ZM27.6694 23.147L22.5491 29.2937L22.5246 29.2733L22.5003 29.2527L27.6694 23.147ZM26.9517 22.6011L22.4477 29.2127L22.4473 29.2124L26.9517 22.6011ZM21.748 21L21.7578 29H21.748V21ZM9.24942 21V29H9.24174L9.23406 29L9.24942 21ZM4.04395 22.6019L-0.467663 15.9955L-0.465817 15.9942L4.04395 22.6019ZM3.32619 23.1487L8.49776 29.2524L8.47072 29.2753L8.44349 29.298L3.32619 23.1487ZM1.26377e-05 30.2627L8.00001 30.2491V30.2627H1.26377e-05ZM1.26377e-05 39.471L-7.99999 39.4828V39.471H1.26377e-05ZM2.33359 43.5188L-1.67042 50.4447L-1.68182 50.438L2.33359 43.5188ZM11.8543 49.0229L7.86143 55.9552L7.85034 55.9488L11.8543 49.0229ZM27.7106 41.8502V33.8502L31.545 48.8714L27.7106 41.8502ZM27.6432 41.8871L23.7194 34.9154L23.7639 34.8903L23.8087 34.8659L27.6432 41.8871ZM27.6292 41.8949L23.6189 34.9727L23.662 34.9477L23.7054 34.9233L27.6292 41.8949ZM26.6112 42.4847L30.6215 49.4069L30.6145 49.411L26.6112 42.4847ZM18.1828 47.3561L22.1861 54.2825L22.1837 54.2839L18.1828 47.3561ZM15.4987 48.0757L15.4987 40.0757L15.4987 48.0757ZM12.8146 47.3561L8.81371 54.2839L8.81075 54.2822L12.8146 47.3561ZM3.29468 41.8529L-0.709123 48.7789L-0.718949 48.7732L3.29468 41.8529ZM1.92308 39.4746L-6.07692 39.4866V39.4746H1.92308ZM1.92308 30.2627L9.92308 30.2538V30.2627H1.92308ZM4.56126 24.6271L9.72989 30.7333L9.70323 30.7558L9.67638 30.7782L4.56126 24.6271ZM5.12671 24.196L0.6066 17.5953L0.617927 17.5876L5.12671 24.196ZM9.24942 22.9279V30.9279H9.24114L9.23286 30.9279L9.24942 22.9279ZM21.7445 22.9279L21.7554 30.9279H21.7445V22.9279ZM25.8672 24.196L30.3713 17.5844L30.382 17.5916L30.3926 17.5989L25.8672 24.196ZM26.4291 24.6245L21.3116 30.7735L21.2882 30.754L21.2648 30.7343L26.4291 24.6245ZM29.0708 30.2627L21.0708 30.2627L21.0708 30.2621L29.0708 30.2627ZM29.0708 39.4719L37.0708 39.4719L37.0708 39.4765L29.0708 39.4719ZM27.7071 41.8502V49.8502H-1.7941L23.6655 34.9462L27.7071 41.8502ZM15.491 42C15.3713 42.0001 15.2543 42.0316 15.1517 42.0907L23.1379 55.9551C20.816 57.2926 18.1838 57.9979 15.5038 58L15.491 42ZM15.1416 42.0965L23.5717 37.2242L31.5781 51.0769L23.148 55.9493L15.1416 42.0965ZM23.5709 37.2247L24.6502 36.6007L32.6582 50.4525L31.5789 51.0765L23.5709 37.2247ZM24.5364 36.6678L24.5495 36.6599L32.7851 50.3776L32.772 50.3855L24.5364 36.6678ZM24.6504 36.6003C24.1477 36.8922 23.7315 37.3103 23.4423 37.8119L37.3043 45.8023C36.1965 47.7242 34.6037 49.3227 32.6842 50.4372L24.6504 36.6003ZM23.4423 37.8119C23.1532 38.3135 23.0009 38.8816 23 39.4595L39 39.4843C38.9966 41.702 38.4121 43.8805 37.3043 45.8023L23.4423 37.8119ZM23 39.4719V30.2627H39V39.4719H23ZM23 30.2596C23.0001 30.0744 22.9594 29.8917 22.8812 29.7246L37.3724 22.9419C38.4454 25.2344 39.001 27.7348 39 30.2658L23 30.2596ZM22.8812 29.7246C22.803 29.5576 22.6894 29.4106 22.5491 29.2937L32.7898 17.0003C34.735 18.6207 36.2994 20.6494 37.3724 22.9419L22.8812 29.7246ZM22.5003 29.2527C22.4834 29.2385 22.4659 29.2251 22.4477 29.2127L31.4557 15.9894C31.9347 16.3157 32.3963 16.6668 32.8386 17.0413L22.5003 29.2527ZM22.4473 29.2124C22.2431 29.0733 22.0029 28.9997 21.7578 29L21.7382 13C25.2049 12.9958 28.5916 14.0381 31.4561 15.9897L22.4473 29.2124ZM21.748 29H9.24942V13H21.748V29ZM9.23406 29C8.99222 28.9995 8.75509 29.0722 8.55372 29.2096L-0.465817 15.9942C2.40121 14.0375 5.79306 12.9934 9.26478 13L9.23406 29ZM8.55557 29.2084C8.53552 29.2221 8.51623 29.2368 8.49776 29.2524L-1.84537 17.0451C-1.40455 16.6716 -0.944688 16.3212 -0.467663 15.9955L8.55557 29.2084ZM8.44349 29.298C8.30531 29.413 8.19346 29.5577 8.11653 29.7222L-6.37745 22.9454C-5.3045 20.6507 -3.73873 18.6203 -1.79111 16.9995L8.44349 29.298ZM8.11653 29.7222C8.03959 29.8868 7.99969 30.0667 8 30.2491L-7.99998 30.2763C-8.00428 27.7433 -7.45038 25.2402 -6.37745 22.9454L8.11653 29.7222ZM8.00001 30.2627V39.471H-7.99999V30.2627H8.00001ZM8 39.4593C7.99915 38.8812 7.84681 38.3129 7.55758 37.8112L-6.30382 45.8026C-7.41205 43.8803 -7.99671 41.7012 -7.99998 39.4828L8 39.4593ZM7.55758 37.8112C7.26829 37.3095 6.85187 36.8913 6.34901 36.5995L-1.68182 50.438C-3.60212 49.3236 -5.19554 47.7249 -6.30382 45.8026L7.55758 37.8112ZM6.3376 36.5929L15.8583 42.097L7.85034 55.9488L-1.67041 50.4446L6.3376 36.5929ZM15.8472 42.0906C15.7449 42.0317 15.6282 42.0002 15.5088 42L15.4859 58C12.8092 57.9962 10.1805 57.291 7.86144 55.9552L15.8472 42.0906ZM31.545 48.8714L31.4776 48.9082L23.8087 34.8659L23.8761 34.8291L31.545 48.8714ZM31.5669 48.8587L31.5529 48.8666L23.7054 34.9233L23.7194 34.9154L31.5669 48.8587ZM31.6395 48.8172L30.6215 49.4069L22.6009 35.5625L23.6189 34.9727L31.6395 48.8172ZM30.6145 49.411L22.1861 54.2825L14.1795 40.4298L22.6079 35.5584L30.6145 49.411ZM22.1837 54.2839C20.1515 55.4574 17.8461 56.0757 15.4987 56.0757L15.4987 40.0757C15.0359 40.0757 14.5817 40.1976 14.182 40.4284L22.1837 54.2839ZM15.4987 56.0757C13.1513 56.0757 10.8459 55.4575 8.81371 54.2839L16.8154 40.4284C16.4156 40.1976 15.9615 40.0757 15.4987 40.0757L15.4987 56.0757ZM8.81075 54.2822L-0.709119 48.7789L7.29848 34.9269L16.8184 40.4301L8.81075 54.2822ZM-0.718949 48.7732C-2.34754 47.8286 -3.69877 46.4734 -4.63856 44.8438L9.22167 36.8504C8.76328 36.0556 8.10385 35.394 7.30831 34.9326L-0.718949 48.7732ZM-4.63856 44.8438C-5.57835 43.2142 -6.07408 41.367 -6.07691 39.4866L9.92307 39.4625C9.92169 38.546 9.68008 37.6453 9.22167 36.8504L-4.63856 44.8438ZM-6.07692 39.4746V30.2627H9.92308V39.4746H-6.07692ZM-6.07692 30.2716C-6.07944 28.0209 -5.58612 25.797 -4.63172 23.7582L9.85908 30.5418C9.90146 30.4512 9.92318 30.3529 9.92307 30.2538L-6.07692 30.2716ZM-4.63172 23.7582C-3.67732 21.7195 -2.28515 19.9158 -0.553854 18.476L9.67638 30.7782C9.75451 30.7132 9.81668 30.6323 9.85908 30.5418L-4.63172 23.7582ZM-0.60736 18.5209C-0.218658 18.1919 0.186524 17.883 0.606606 17.5953L9.64681 30.7966C9.67554 30.7769 9.70327 30.7558 9.72989 30.7333L-0.60736 18.5209ZM0.617927 17.5876C3.16602 15.849 6.18052 14.9215 9.26597 14.9279L9.23286 30.9279C9.37733 30.9282 9.51769 30.8847 9.63549 30.8043L0.617927 17.5876ZM9.24942 14.9279H21.7445V30.9279H9.24942V14.9279ZM21.7336 14.9279C24.815 14.9237 27.8253 15.8499 30.3713 17.5844L21.3631 30.8075C21.4779 30.8857 21.6146 30.9281 21.7554 30.9279L21.7336 14.9279ZM30.3926 17.5989C30.8079 17.8838 31.2087 18.1895 31.5934 18.5146L21.2648 30.7343C21.2895 30.7551 21.3152 30.7747 21.3418 30.793L30.3926 17.5989ZM31.5466 18.4754C33.2763 19.9149 34.6675 21.7174 35.622 23.7546L21.1334 30.543C21.1748 30.6313 21.2354 30.7101 21.3116 30.7735L31.5466 18.4754ZM35.622 23.7546C36.5764 25.7918 37.071 28.0139 37.0708 30.2633L21.0708 30.2621C21.0708 30.3589 21.0921 30.4547 21.1334 30.543L35.622 23.7546ZM37.0708 30.2627V39.4719H21.0708V30.2627H37.0708ZM37.0708 39.4765C37.0697 41.3519 36.5785 43.1948 35.6453 44.8223L21.7652 36.8635C21.3105 37.6565 21.0713 38.5541 21.0708 39.4673L37.0708 39.4765ZM35.6453 44.8223C34.7121 46.4499 33.369 47.8057 31.7487 48.7543L23.6655 34.9462C22.8748 35.4091 22.22 36.0704 21.7652 36.8635L35.6453 44.8223ZM27.7071 33.8502H27.7106V49.8502H27.7071V33.8502Z" fill="white" mask="url(#path-1-inside-1_2_1477)"/>
<path d="M15.4974 50L15.5038 58L15.4949 58L15.4859 58L15.4974 50ZM19.1448 49.0229L23.148 55.9493L23.1379 55.9551L19.1448 49.0229ZM27.5749 44.1506L31.5789 51.0765L31.5781 51.0769L27.5749 44.1506ZM28.6542 43.5266L32.772 50.3855L32.7153 50.4195L32.6582 50.4525L28.6542 43.5266ZM28.6673 43.5188L24.5495 36.6599L24.5997 36.6298L24.6504 36.6003L28.6673 43.5188ZM31 39.4719L39 39.4719L39 39.4843L31 39.4719ZM31 30.2627L23 30.2627L23 30.2596L31 30.2627ZM27.6694 23.147L22.5491 29.2937L22.5246 29.2733L22.5003 29.2527L27.6694 23.147ZM26.9517 22.6011L22.4477 29.2127L22.4473 29.2124L26.9517 22.6011ZM21.748 21L21.7578 29H21.748V21ZM9.24942 21V29H9.24174L9.23406 29L9.24942 21ZM4.04395 22.6019L-0.467663 15.9955L-0.465817 15.9942L4.04395 22.6019ZM3.32619 23.1487L8.49776 29.2524L8.47072 29.2753L8.44349 29.298L3.32619 23.1487ZM1.26377e-05 30.2627L8.00001 30.2491V30.2627H1.26377e-05ZM1.26377e-05 39.471L-7.99999 39.4828V39.471H1.26377e-05ZM2.33359 43.5188L-1.67042 50.4447L-1.68182 50.438L2.33359 43.5188ZM11.8543 49.0229L7.86143 55.9552L7.85034 55.9488L11.8543 49.0229ZM27.7106 41.8502V33.8502L31.545 48.8714L27.7106 41.8502ZM27.6432 41.8871L23.7194 34.9154L23.7639 34.8903L23.8087 34.8659L27.6432 41.8871ZM27.6292 41.8949L23.6189 34.9727L23.662 34.9477L23.7054 34.9233L27.6292 41.8949ZM26.6112 42.4847L30.6215 49.4069L30.6145 49.411L26.6112 42.4847ZM18.1828 47.3561L22.1861 54.2825L22.1837 54.2839L18.1828 47.3561ZM15.4987 48.0757L15.4987 40.0757L15.4987 48.0757ZM12.8146 47.3561L8.81371 54.2839L8.81075 54.2822L12.8146 47.3561ZM3.29468 41.8529L-0.709123 48.7789L-0.718949 48.7732L3.29468 41.8529ZM1.92308 39.4746L-6.07692 39.4866V39.4746H1.92308ZM1.92308 30.2627L9.92308 30.2538V30.2627H1.92308ZM4.56126 24.6271L9.72989 30.7333L9.70323 30.7558L9.67638 30.7782L4.56126 24.6271ZM5.12671 24.196L0.6066 17.5953L0.617927 17.5876L5.12671 24.196ZM9.24942 22.9279V30.9279H9.24114L9.23286 30.9279L9.24942 22.9279ZM21.7445 22.9279L21.7554 30.9279H21.7445V22.9279ZM25.8672 24.196L30.3713 17.5844L30.382 17.5916L30.3926 17.5989L25.8672 24.196ZM26.4291 24.6245L21.3116 30.7735L21.2882 30.754L21.2648 30.7343L26.4291 24.6245ZM29.0708 30.2627L21.0708 30.2627L21.0708 30.2621L29.0708 30.2627ZM29.0708 39.4719L37.0708 39.4719L37.0708 39.4765L29.0708 39.4719ZM27.7071 41.8502V49.8502H-1.7941L23.6655 34.9462L27.7071 41.8502ZM15.491 42C15.3713 42.0001 15.2543 42.0316 15.1517 42.0907L23.1379 55.9551C20.816 57.2926 18.1838 57.9979 15.5038 58L15.491 42ZM15.1416 42.0965L23.5717 37.2242L31.5781 51.0769L23.148 55.9493L15.1416 42.0965ZM23.5709 37.2247L24.6502 36.6007L32.6582 50.4525L31.5789 51.0765L23.5709 37.2247ZM24.5364 36.6678L24.5495 36.6599L32.7851 50.3776L32.772 50.3855L24.5364 36.6678ZM24.6504 36.6003C24.1477 36.8922 23.7315 37.3103 23.4423 37.8119L37.3043 45.8023C36.1965 47.7242 34.6037 49.3227 32.6842 50.4372L24.6504 36.6003ZM23.4423 37.8119C23.1532 38.3135 23.0009 38.8816 23 39.4595L39 39.4843C38.9966 41.702 38.4121 43.8805 37.3043 45.8023L23.4423 37.8119ZM23 39.4719V30.2627H39V39.4719H23ZM23 30.2596C23.0001 30.0744 22.9594 29.8917 22.8812 29.7246L37.3724 22.9419C38.4454 25.2344 39.001 27.7348 39 30.2658L23 30.2596ZM22.8812 29.7246C22.803 29.5576 22.6894 29.4106 22.5491 29.2937L32.7898 17.0003C34.735 18.6207 36.2994 20.6494 37.3724 22.9419L22.8812 29.7246ZM22.5003 29.2527C22.4834 29.2385 22.4659 29.2251 22.4477 29.2127L31.4557 15.9894C31.9347 16.3157 32.3963 16.6668 32.8386 17.0413L22.5003 29.2527ZM22.4473 29.2124C22.2431 29.0733 22.0029 28.9997 21.7578 29L21.7382 13C25.2049 12.9958 28.5916 14.0381 31.4561 15.9897L22.4473 29.2124ZM21.748 29H9.24942V13H21.748V29ZM9.23406 29C8.99222 28.9995 8.75509 29.0722 8.55372 29.2096L-0.465817 15.9942C2.40121 14.0375 5.79306 12.9934 9.26478 13L9.23406 29ZM8.55557 29.2084C8.53552 29.2221 8.51623 29.2368 8.49776 29.2524L-1.84537 17.0451C-1.40455 16.6716 -0.944688 16.3212 -0.467663 15.9955L8.55557 29.2084ZM8.44349 29.298C8.30531 29.413 8.19346 29.5577 8.11653 29.7222L-6.37745 22.9454C-5.3045 20.6507 -3.73873 18.6203 -1.79111 16.9995L8.44349 29.298ZM8.11653 29.7222C8.03959 29.8868 7.99969 30.0667 8 30.2491L-7.99998 30.2763C-8.00428 27.7433 -7.45038 25.2402 -6.37745 22.9454L8.11653 29.7222ZM8.00001 30.2627V39.471H-7.99999V30.2627H8.00001ZM8 39.4593C7.99915 38.8812 7.84681 38.3129 7.55758 37.8112L-6.30382 45.8026C-7.41205 43.8803 -7.99671 41.7012 -7.99998 39.4828L8 39.4593ZM7.55758 37.8112C7.26829 37.3095 6.85187 36.8913 6.34901 36.5995L-1.68182 50.438C-3.60212 49.3236 -5.19554 47.7249 -6.30382 45.8026L7.55758 37.8112ZM6.3376 36.5929L15.8583 42.097L7.85034 55.9488L-1.67041 50.4446L6.3376 36.5929ZM15.8472 42.0906C15.7449 42.0317 15.6282 42.0002 15.5088 42L15.4859 58C12.8092 57.9962 10.1805 57.291 7.86144 55.9552L15.8472 42.0906ZM31.545 48.8714L31.4776 48.9082L23.8087 34.8659L23.8761 34.8291L31.545 48.8714ZM31.5669 48.8587L31.5529 48.8666L23.7054 34.9233L23.7194 34.9154L31.5669 48.8587ZM31.6395 48.8172L30.6215 49.4069L22.6009 35.5625L23.6189 34.9727L31.6395 48.8172ZM30.6145 49.411L22.1861 54.2825L14.1795 40.4298L22.6079 35.5584L30.6145 49.411ZM22.1837 54.2839C20.1515 55.4574 17.8461 56.0757 15.4987 56.0757L15.4987 40.0757C15.0359 40.0757 14.5817 40.1976 14.182 40.4284L22.1837 54.2839ZM15.4987 56.0757C13.1513 56.0757 10.8459 55.4575 8.81371 54.2839L16.8154 40.4284C16.4156 40.1976 15.9615 40.0757 15.4987 40.0757L15.4987 56.0757ZM8.81075 54.2822L-0.709119 48.7789L7.29848 34.9269L16.8184 40.4301L8.81075 54.2822ZM-0.718949 48.7732C-2.34754 47.8286 -3.69877 46.4734 -4.63856 44.8438L9.22167 36.8504C8.76328 36.0556 8.10385 35.394 7.30831 34.9326L-0.718949 48.7732ZM-4.63856 44.8438C-5.57835 43.2142 -6.07408 41.367 -6.07691 39.4866L9.92307 39.4625C9.92169 38.546 9.68008 37.6453 9.22167 36.8504L-4.63856 44.8438ZM-6.07692 39.4746V30.2627H9.92308V39.4746H-6.07692ZM-6.07692 30.2716C-6.07944 28.0209 -5.58612 25.797 -4.63172 23.7582L9.85908 30.5418C9.90146 30.4512 9.92318 30.3529 9.92307 30.2538L-6.07692 30.2716ZM-4.63172 23.7582C-3.67732 21.7195 -2.28515 19.9158 -0.553854 18.476L9.67638 30.7782C9.75451 30.7132 9.81668 30.6323 9.85908 30.5418L-4.63172 23.7582ZM-0.60736 18.5209C-0.218658 18.1919 0.186524 17.883 0.606606 17.5953L9.64681 30.7966C9.67554 30.7769 9.70327 30.7558 9.72989 30.7333L-0.60736 18.5209ZM0.617927 17.5876C3.16602 15.849 6.18052 14.9215 9.26597 14.9279L9.23286 30.9279C9.37733 30.9282 9.51769 30.8847 9.63549 30.8043L0.617927 17.5876ZM9.24942 14.9279H21.7445V30.9279H9.24942V14.9279ZM21.7336 14.9279C24.815 14.9237 27.8253 15.8499 30.3713 17.5844L21.3631 30.8075C21.4779 30.8857 21.6146 30.9281 21.7554 30.9279L21.7336 14.9279ZM30.3926 17.5989C30.8079 17.8838 31.2087 18.1895 31.5934 18.5146L21.2648 30.7343C21.2895 30.7551 21.3152 30.7747 21.3418 30.793L30.3926 17.5989ZM31.5466 18.4754C33.2763 19.9149 34.6675 21.7174 35.622 23.7546L21.1334 30.543C21.1748 30.6313 21.2354 30.7101 21.3116 30.7735L31.5466 18.4754ZM35.622 23.7546C36.5764 25.7918 37.071 28.0139 37.0708 30.2633L21.0708 30.2621C21.0708 30.3589 21.0921 30.4547 21.1334 30.543L35.622 23.7546ZM37.0708 30.2627V39.4719H21.0708V30.2627H37.0708ZM37.0708 39.4765C37.0697 41.3519 36.5785 43.1948 35.6453 44.8223L21.7652 36.8635C21.3105 37.6565 21.0713 38.5541 21.0708 39.4673L37.0708 39.4765ZM35.6453 44.8223C34.7121 46.4499 33.369 47.8057 31.7487 48.7543L23.6655 34.9462C22.8748 35.4091 22.22 36.0704 21.7652 36.8635L35.6453 44.8223ZM27.7071 33.8502H27.7106V49.8502H27.7071V33.8502Z" fill="white" mask="url(#path-1-inside-1_2_1477)"/>
<mask id="path-3-inside-2_2_1477" fill="white">
<path d="M15.4992 19C17.3782 19.0002 19.215 18.4431 20.7774 17.3993C22.3398 16.3555 23.5576 14.8718 24.2767 13.1359C24.9958 11.4 25.184 9.48975 24.8175 7.64685C24.451 5.80395 23.5462 4.11114 22.2175 2.78249C20.8889 1.45384 19.196 0.549036 17.3532 0.182503C15.5103 -0.184029 13.6001 0.00417197 11.8641 0.723309C10.1282 1.44245 8.6445 2.66022 7.6007 4.22261C6.55689 5.78501 5.99983 7.62185 6 9.50084C6.0029 12.0193 7.00464 14.4337 8.78545 16.2146C10.5663 17.9954 12.9807 18.9971 15.4992 19ZM15.4992 1.85747C17.0109 1.8573 18.4888 2.30544 19.7458 3.1452C21.0029 3.98497 21.9827 5.17864 22.5613 6.57527C23.14 7.9719 23.2914 9.50875 22.9966 10.9915C22.7018 12.4742 21.9739 13.8362 20.905 14.9052C19.8361 15.9743 18.4741 16.7023 16.9915 16.9973C15.5088 17.2923 13.9719 17.141 12.5752 16.5625C11.1785 15.984 9.98473 15.0043 9.14482 13.7474C8.30492 12.4904 7.85662 11.0126 7.85662 9.50084C7.85863 7.47446 8.66445 5.53163 10.0972 4.09868C11.53 2.66573 13.4728 1.8597 15.4992 1.85747Z"/>
</mask>
<path d="M15.4992 19C17.3782 19.0002 19.215 18.4431 20.7774 17.3993C22.3398 16.3555 23.5576 14.8718 24.2767 13.1359C24.9958 11.4 25.184 9.48975 24.8175 7.64685C24.451 5.80395 23.5462 4.11114 22.2175 2.78249C20.8889 1.45384 19.196 0.549036 17.3532 0.182503C15.5103 -0.184029 13.6001 0.00417197 11.8641 0.723309C10.1282 1.44245 8.6445 2.66022 7.6007 4.22261C6.55689 5.78501 5.99983 7.62185 6 9.50084C6.0029 12.0193 7.00464 14.4337 8.78545 16.2146C10.5663 17.9954 12.9807 18.9971 15.4992 19ZM15.4992 1.85747C17.0109 1.8573 18.4888 2.30544 19.7458 3.1452C21.0029 3.98497 21.9827 5.17864 22.5613 6.57527C23.14 7.9719 23.2914 9.50875 22.9966 10.9915C22.7018 12.4742 21.9739 13.8362 20.905 14.9052C19.8361 15.9743 18.4741 16.7023 16.9915 16.9973C15.5088 17.2923 13.9719 17.141 12.5752 16.5625C11.1785 15.984 9.98473 15.0043 9.14482 13.7474C8.30492 12.4904 7.85662 11.0126 7.85662 9.50084C7.85863 7.47446 8.66445 5.53163 10.0972 4.09868C11.53 2.66573 13.4728 1.8597 15.4992 1.85747Z" fill="white"/>
<path d="M15.4992 19L15.4984 27L15.4899 27L15.4992 19ZM6 9.50084L-2 9.51007L-2 9.50155L6 9.50084ZM15.4992 1.85747L15.4903 -6.14253L15.4983 -6.14253L15.4992 1.85747ZM7.85662 9.50084L-0.143382 9.50084L-0.143374 9.49291L7.85662 9.50084ZM15.4999 11C15.7965 11 16.0866 10.9121 16.3333 10.7473L25.2215 24.0514C22.3434 25.9741 18.9598 27.0003 15.4984 27L15.4999 11ZM16.3333 10.7473C16.58 10.5824 16.7723 10.3482 16.8858 10.0741L31.6676 16.1977C30.3429 19.3955 28.0996 22.1286 25.2215 24.0514L16.3333 10.7473ZM16.8858 10.0741C16.9993 9.8 17.0291 9.49839 16.9712 9.2074L32.6638 6.0863C33.339 9.48111 32.9923 12.9999 31.6676 16.1977L16.8858 10.0741ZM16.9712 9.2074C16.9133 8.91641 16.7704 8.64913 16.5607 8.43934L27.8744 -2.87437C30.3219 -0.426854 31.9886 2.69149 32.6638 6.0863L16.9712 9.2074ZM16.5607 8.43934C16.3509 8.22956 16.0836 8.08669 15.7926 8.02882L18.9137 -7.66381C22.3085 -6.98862 25.4269 -5.32188 27.8744 -2.87437L16.5607 8.43934ZM15.7926 8.02882C15.5016 7.97095 15.2 8.00066 14.9259 8.11421L8.80233 -6.66759C12.0001 -7.99232 15.5189 -8.339 18.9137 -7.66381L15.7926 8.02882ZM14.9259 8.11421C14.6518 8.22776 14.4176 8.42004 14.2527 8.66673L0.948643 -0.221508C2.87145 -3.09961 5.60456 -5.34287 8.80233 -6.66759L14.9259 8.11421ZM14.2527 8.66673C14.0879 8.91344 14 9.20348 14 9.50013L-2 9.50155C-2.00031 6.04022 -0.974149 2.65657 0.948643 -0.221508L14.2527 8.66673ZM14 9.49162C14.0005 9.89152 14.1595 10.2749 14.4423 10.5577L3.12859 21.8714C-0.15024 18.5926 -1.99465 14.147 -1.99999 9.51007L14 9.49162ZM14.4423 10.5577C14.7251 10.8405 15.1085 10.9995 15.5084 11L15.4899 27C10.853 26.9946 6.40743 25.1502 3.12859 21.8714L14.4423 10.5577ZM15.4983 -6.14253C18.5923 -6.14287 21.617 -5.22569 24.1897 -3.50698L15.3019 9.79739C15.3605 9.83657 15.4295 9.85748 15.5 9.85747L15.4983 -6.14253ZM24.1897 -3.50698C26.7625 -1.78827 28.7678 0.654775 29.9521 3.51319L15.1705 9.63735C15.1975 9.70251 15.2432 9.7582 15.3019 9.79739L24.1897 -3.50698ZM29.9521 3.51319C31.1364 6.37162 31.4464 9.51703 30.843 12.5517L15.1502 9.43129C15.1365 9.50047 15.1435 9.57218 15.1705 9.63735L29.9521 3.51319ZM30.843 12.5517C30.2396 15.5863 28.7499 18.3738 26.5621 20.5618L15.2478 9.24869C15.1979 9.29858 15.164 9.36212 15.1502 9.43129L30.843 12.5517ZM26.5621 20.5618C24.3744 22.7497 21.587 24.2398 18.5525 24.8435L15.4304 9.15107C15.3613 9.16483 15.2977 9.19879 15.2478 9.24869L26.5621 20.5618ZM18.5525 24.8435C15.518 25.4472 12.3725 25.1376 9.51394 23.9536L15.6365 9.17136C15.5713 9.14437 15.4996 9.13731 15.4304 9.15107L18.5525 24.8435ZM9.51394 23.9536C6.65539 22.7696 4.21213 20.7646 2.49313 18.192L15.7965 9.30271C15.7573 9.24406 15.7016 9.19835 15.6365 9.17136L9.51394 23.9536ZM2.49313 18.192C0.774139 15.6194 -0.143378 12.5949 -0.143378 9.50084L15.8566 9.50084C15.8566 9.4303 15.8357 9.36136 15.7965 9.30271L2.49313 18.192ZM-0.143374 9.49291C-0.139261 5.34768 1.50914 1.3734 4.44007 -1.55786L15.7544 9.75522C15.8198 9.68986 15.8565 9.60123 15.8566 9.50878L-0.143374 9.49291ZM4.44007 -1.55786C7.37102 -4.48913 11.3451 -6.13796 15.4903 -6.14253L15.508 9.85746C15.6004 9.85736 15.689 9.82059 15.7544 9.75522L4.44007 -1.55786Z" fill="white" mask="url(#path-3-inside-2_2_1477)"/>
<path d="M15.4992 19L15.4984 27L15.4899 27L15.4992 19ZM6 9.50084L-2 9.51007L-2 9.50155L6 9.50084ZM15.4992 1.85747L15.4903 -6.14253L15.4983 -6.14253L15.4992 1.85747ZM7.85662 9.50084L-0.143382 9.50084L-0.143374 9.49291L7.85662 9.50084ZM15.4999 11C15.7965 11 16.0866 10.9121 16.3333 10.7473L25.2215 24.0514C22.3434 25.9741 18.9598 27.0003 15.4984 27L15.4999 11ZM16.3333 10.7473C16.58 10.5824 16.7723 10.3482 16.8858 10.0741L31.6676 16.1977C30.3429 19.3955 28.0996 22.1286 25.2215 24.0514L16.3333 10.7473ZM16.8858 10.0741C16.9993 9.8 17.0291 9.49839 16.9712 9.2074L32.6638 6.0863C33.339 9.48111 32.9923 12.9999 31.6676 16.1977L16.8858 10.0741ZM16.9712 9.2074C16.9133 8.91641 16.7704 8.64913 16.5607 8.43934L27.8744 -2.87437C30.3219 -0.426854 31.9886 2.69149 32.6638 6.0863L16.9712 9.2074ZM16.5607 8.43934C16.3509 8.22956 16.0836 8.08669 15.7926 8.02882L18.9137 -7.66381C22.3085 -6.98862 25.4269 -5.32188 27.8744 -2.87437L16.5607 8.43934ZM15.7926 8.02882C15.5016 7.97095 15.2 8.00066 14.9259 8.11421L8.80233 -6.66759C12.0001 -7.99232 15.5189 -8.339 18.9137 -7.66381L15.7926 8.02882ZM14.9259 8.11421C14.6518 8.22776 14.4176 8.42004 14.2527 8.66673L0.948643 -0.221508C2.87145 -3.09961 5.60456 -5.34287 8.80233 -6.66759L14.9259 8.11421ZM14.2527 8.66673C14.0879 8.91344 14 9.20348 14 9.50013L-2 9.50155C-2.00031 6.04022 -0.974149 2.65657 0.948643 -0.221508L14.2527 8.66673ZM14 9.49162C14.0005 9.89152 14.1595 10.2749 14.4423 10.5577L3.12859 21.8714C-0.15024 18.5926 -1.99465 14.147 -1.99999 9.51007L14 9.49162ZM14.4423 10.5577C14.7251 10.8405 15.1085 10.9995 15.5084 11L15.4899 27C10.853 26.9946 6.40743 25.1502 3.12859 21.8714L14.4423 10.5577ZM15.4983 -6.14253C18.5923 -6.14287 21.617 -5.22569 24.1897 -3.50698L15.3019 9.79739C15.3605 9.83657 15.4295 9.85748 15.5 9.85747L15.4983 -6.14253ZM24.1897 -3.50698C26.7625 -1.78827 28.7678 0.654775 29.9521 3.51319L15.1705 9.63735C15.1975 9.70251 15.2432 9.7582 15.3019 9.79739L24.1897 -3.50698ZM29.9521 3.51319C31.1364 6.37162 31.4464 9.51703 30.843 12.5517L15.1502 9.43129C15.1365 9.50047 15.1435 9.57218 15.1705 9.63735L29.9521 3.51319ZM30.843 12.5517C30.2396 15.5863 28.7499 18.3738 26.5621 20.5618L15.2478 9.24869C15.1979 9.29858 15.164 9.36212 15.1502 9.43129L30.843 12.5517ZM26.5621 20.5618C24.3744 22.7497 21.587 24.2398 18.5525 24.8435L15.4304 9.15107C15.3613 9.16483 15.2977 9.19879 15.2478 9.24869L26.5621 20.5618ZM18.5525 24.8435C15.518 25.4472 12.3725 25.1376 9.51394 23.9536L15.6365 9.17136C15.5713 9.14437 15.4996 9.13731 15.4304 9.15107L18.5525 24.8435ZM9.51394 23.9536C6.65539 22.7696 4.21213 20.7646 2.49313 18.192L15.7965 9.30271C15.7573 9.24406 15.7016 9.19835 15.6365 9.17136L9.51394 23.9536ZM2.49313 18.192C0.774139 15.6194 -0.143378 12.5949 -0.143378 9.50084L15.8566 9.50084C15.8566 9.4303 15.8357 9.36136 15.7965 9.30271L2.49313 18.192ZM-0.143374 9.49291C-0.139261 5.34768 1.50914 1.3734 4.44007 -1.55786L15.7544 9.75522C15.8198 9.68986 15.8565 9.60123 15.8566 9.50878L-0.143374 9.49291ZM4.44007 -1.55786C7.37102 -4.48913 11.3451 -6.13796 15.4903 -6.14253L15.508 9.85746C15.6004 9.85736 15.689 9.82059 15.7544 9.75522L4.44007 -1.55786Z" fill="white" mask="url(#path-3-inside-2_2_1477)"/>
</svg>
