<svg width="378" height="266" viewBox="0 0 378 266" fill="none" xmlns="http://www.w3.org/2000/svg">
<path d="M193.052 265.436C204.421 265.436 213.638 256.233 213.638 244.881C213.638 233.528 204.421 224.325 193.052 224.325C181.683 224.325 172.467 233.528 172.467 244.881C172.467 256.233 181.683 265.436 193.052 265.436Z" fill="#00EA99"/>
<path d="M316.031 264.281C327.548 260.828 339.791 257.226 348.925 249.016C357.086 241.679 362.596 230.476 359.215 219.473C355.841 208.493 345.734 201.172 335.299 197.53C329.381 195.465 323.189 194.319 317 193.419C310.272 192.44 303.514 191.639 296.759 190.867C269.408 187.743 241.954 185.835 214.398 185.142C200.8 184.8 187.205 184.809 173.606 185.006C161.461 185.182 148.67 185.177 137.403 180.023C128.642 176.015 120.69 168.722 118.248 159.14C115.43 148.078 120.628 136.813 128.084 128.801C132.015 124.578 136.608 121.024 141.347 117.756C146.488 114.21 151.808 110.916 157.243 107.841C167.948 101.787 179.139 96.635 190.702 92.4382C196.405 90.3672 202.194 88.5805 208.033 86.9322C212.963 85.5404 217.908 84.1465 222.673 82.2502C231.885 78.5843 240.646 72.3746 242.988 62.1944C245.208 52.546 241.465 42.0719 234.904 34.9042C227.312 26.6118 215.867 22.9767 204.894 22.3885C192.574 21.7282 180.539 24.8069 168.96 28.7142C156.61 32.8817 144.527 37.6735 131.916 41.0491C119.411 44.3931 106.663 46.7592 93.79 48.1258C87.4881 48.7959 80.9957 49.5526 74.6562 49.0396C69.3432 48.6096 64.0573 47.0494 60.1417 43.2841C56.7842 40.0557 54.7842 35.6187 55.4718 30.9363C55.5967 30.0858 56.8905 30.4474 56.7664 31.2927C55.9293 36.9924 59.8094 42.2446 64.5907 44.935C70.1166 48.0445 76.8408 48.0487 82.9931 47.6931C96.3328 46.8886 109.582 44.976 122.604 41.9752C135.4 39.0569 147.738 34.8851 160.062 30.4287C171.767 26.1962 183.734 22.0653 196.239 21.1486C207.089 20.3531 218.503 21.9316 227.956 27.5937C236.263 32.57 242.372 40.8688 244.319 50.3918C246.221 59.6975 243.587 69.064 236.532 75.5578C229.228 82.2815 219.213 85.156 209.88 87.8035C198.043 91.1614 186.459 95.0865 175.246 100.183C163.881 105.334 152.981 111.453 142.668 118.472C132.712 125.266 122.887 133.813 119.739 145.932C118.272 151.578 118.543 157.565 120.997 162.897C123.179 167.639 126.773 171.627 130.959 174.703C140.948 182.042 153.537 183.549 165.603 183.699C179.154 183.867 192.706 183.411 206.261 183.633C233.887 184.086 261.457 185.765 288.969 188.67C295.863 189.399 302.749 190.204 309.625 191.087C315.811 191.88 322.017 192.669 328.098 194.078C338.911 196.584 349.432 201.403 356.153 210.557C359.136 214.526 360.984 219.228 361.499 224.163C361.97 229.312 360.707 234.471 358.376 239.052C353.215 249.192 343.548 255.641 333.282 259.878C327.784 262.148 322.08 263.867 316.388 265.574C315.559 265.823 315.205 264.529 316.031 264.281Z" fill="#F2F2F2"/>
<path d="M56.3379 41.7817C62.2695 41.7817 67.0781 36.9801 67.0781 31.057C67.0781 25.1339 62.2695 20.3323 56.3379 20.3323C50.4062 20.3323 45.5977 25.1339 45.5977 31.057C45.5977 36.9801 50.4062 41.7817 56.3379 41.7817Z" fill="#F2F2F2"/>
<path d="M130.849 62.1138C136.78 62.1138 141.589 57.3122 141.589 51.3891C141.589 45.466 136.78 40.6644 130.849 40.6644C124.917 40.6644 120.108 45.466 120.108 51.3891C120.108 57.3122 124.917 62.1138 130.849 62.1138Z" fill="#F2F2F2"/>
<path d="M193.947 21.4494C199.879 21.4494 204.687 16.6478 204.687 10.7247C204.687 4.80161 199.879 0 193.947 0C188.016 0 183.207 4.80161 183.207 10.7247C183.207 16.6478 188.016 21.4494 193.947 21.4494Z" fill="#F2F2F2"/>
<path d="M233.328 67.0294C239.26 67.0294 244.068 62.2277 244.068 56.3047C244.068 50.3816 239.26 45.58 233.328 45.58C227.396 45.58 222.588 50.3816 222.588 56.3047C222.588 62.2277 227.396 67.0294 233.328 67.0294Z" fill="#F2F2F2"/>
<path d="M180.074 119.759C186.006 119.759 190.814 114.957 190.814 109.034C190.814 103.111 186.006 98.3097 180.074 98.3097C174.143 98.3097 169.334 103.111 169.334 109.034C169.334 114.957 174.143 119.759 180.074 119.759Z" fill="#F2F2F2"/>
<path d="M112.501 145.23C118.433 145.23 123.241 140.429 123.241 134.506C123.241 128.582 118.433 123.781 112.501 123.781C106.569 123.781 101.761 128.582 101.761 134.506C101.761 140.429 106.569 145.23 112.501 145.23Z" fill="#F2F2F2"/>
<path d="M184.103 185.001C190.034 185.001 194.843 180.199 194.843 174.276C194.843 168.353 190.034 163.552 184.103 163.552C178.171 163.552 173.362 168.353 173.362 174.276C173.362 180.199 178.171 185.001 184.103 185.001Z" fill="#F2F2F2"/>
<path d="M261.073 207.344C267.005 207.344 271.813 202.543 271.813 196.619C271.813 190.696 267.005 185.895 261.073 185.895C255.142 185.895 250.333 190.696 250.333 196.619C250.333 202.543 255.142 207.344 261.073 207.344Z" fill="#F2F2F2"/>
<path d="M351.023 202.429C356.955 202.429 361.764 197.627 361.764 191.704C361.764 185.781 356.955 180.979 351.023 180.979C345.092 180.979 340.283 185.781 340.283 191.704C340.283 197.627 345.092 202.429 351.023 202.429Z" fill="#F2F2F2"/>
<path d="M190.847 30.3881C158.674 30.6151 132.332 56.7217 131.875 88.8451C131.871 89.1416 131.869 91.227 131.869 93.9546C131.869 97.9538 133.46 101.789 136.292 104.617C139.124 107.445 142.965 109.034 146.97 109.034C148.955 109.034 150.921 108.643 152.755 107.884C154.589 107.124 156.255 106.011 157.658 104.609C159.061 103.206 160.174 101.541 160.932 99.7094C161.691 97.8773 162.08 95.9139 162.078 93.9315C162.077 92.076 162.076 90.7919 162.076 90.713C162.075 85.7484 163.368 80.869 165.828 76.5549C168.289 72.2407 171.831 68.6404 176.108 66.108C180.384 63.5756 185.247 62.1985 190.218 62.1121C195.189 62.0256 200.097 63.2328 204.459 65.615C208.821 67.9971 212.487 71.4721 215.096 75.6981C217.706 79.9241 219.168 84.7555 219.34 89.7172C219.512 94.6788 218.388 99.5998 216.078 103.996C213.768 108.392 210.351 112.112 206.165 114.79L206.17 114.796C206.17 114.796 184.677 128.613 178.124 147.567L178.13 147.568C176.977 151.451 176.393 155.48 176.396 159.53C176.396 161.195 176.494 175.76 176.684 187.583C176.75 191.662 178.42 195.552 181.332 198.413C184.245 201.274 188.167 202.876 192.253 202.876C194.305 202.875 196.338 202.47 198.234 201.683C200.129 200.895 201.85 199.741 203.297 198.287C204.744 196.833 205.889 195.108 206.666 193.21C207.442 191.313 207.836 189.28 207.823 187.231C207.757 176.403 207.722 163.796 207.722 162.881C207.722 151.243 218.966 139.647 228.201 132.085C238.837 123.377 246.49 111.51 249.564 98.1236C250.244 95.3676 250.619 92.5453 250.683 89.7076C250.683 81.8814 249.132 74.1325 246.119 66.9075C243.107 59.6824 238.693 53.124 233.131 47.6101C227.569 42.0961 220.969 37.7357 213.712 34.78C206.455 31.8242 198.684 30.3316 190.847 30.3881Z" fill="#00EA99"/>
<path d="M377.468 266H0.533254C0.392203 266 0.257072 265.943 0.157478 265.844C0.0578839 265.744 0.00195312 265.609 0.00195312 265.468C0.00195312 265.327 0.0578839 265.192 0.157478 265.092C0.257072 264.992 0.392203 264.936 0.533254 264.936H377.468C377.609 264.936 377.744 264.992 377.844 265.092C377.944 265.191 378 265.327 378 265.468C378 265.609 377.944 265.744 377.844 265.844C377.744 265.944 377.609 266 377.468 266Z" fill="#302E44"/>
<path d="M281.237 121.992C288.651 121.992 294.662 115.99 294.662 108.586C294.662 101.182 288.651 95.1798 281.237 95.1798C273.822 95.1798 267.812 101.182 267.812 108.586C267.812 115.99 273.822 121.992 281.237 121.992Z" fill="#302E44"/>
<path d="M256.428 260.132H250.942L248.332 239H256.43L256.428 260.132Z" fill="#A0616A"/>
<path d="M247.023 258.566H257.604V265.218H240.361C240.361 264.345 240.534 263.48 240.868 262.673C241.203 261.866 241.694 261.132 242.313 260.514C242.931 259.897 243.666 259.407 244.474 259.072C245.282 258.738 246.148 258.566 247.023 258.566Z" fill="#302E44"/>
<path d="M298.941 260.132H293.455L290.845 239H298.942L298.941 260.132Z" fill="#A0616A"/>
<path d="M289.536 258.566H300.117V265.218H282.874C282.874 264.345 283.046 263.48 283.381 262.673C283.716 261.866 284.207 261.132 284.825 260.514C285.444 259.897 286.178 259.407 286.987 259.072C287.795 258.738 288.661 258.566 289.536 258.566Z" fill="#302E44"/>
<path d="M279.196 122.07C285.267 122.07 290.188 117.156 290.188 111.095C290.188 105.033 285.267 100.119 279.196 100.119C273.126 100.119 268.205 105.033 268.205 111.095C268.205 117.156 273.126 122.07 279.196 122.07Z" fill="#A0616A"/>
<path d="M285.747 157.477L290.665 146.194C291.86 143.547 292.202 140.595 291.645 137.745C291.088 134.896 289.659 132.289 287.555 130.285C287.123 129.859 286.664 129.46 286.181 129.092C283.755 127.197 280.764 126.163 277.683 126.156C275.612 126.164 273.566 126.619 271.687 127.488C271.525 127.56 271.369 127.635 271.208 127.711C270.899 127.859 270.595 128.02 270.299 128.185C268.373 129.29 266.733 130.831 265.513 132.685C264.292 134.538 263.525 136.652 263.273 138.856L261.103 157.017C260.557 158.442 241.081 209.921 247.893 249.222C247.965 249.642 248.17 250.028 248.478 250.323C248.785 250.618 249.179 250.807 249.602 250.862L256.507 251.801C257.011 251.87 257.523 251.745 257.939 251.452C258.355 251.16 258.644 250.721 258.749 250.223L270.335 195.076C270.407 194.733 270.593 194.425 270.861 194.2C271.13 193.974 271.466 193.846 271.816 193.834C272.167 193.822 272.511 193.928 272.794 194.134C273.077 194.341 273.283 194.636 273.378 194.973L289.748 252.967C289.865 253.388 290.117 253.76 290.465 254.025C290.813 254.289 291.239 254.433 291.677 254.433C291.807 254.432 291.938 254.42 292.066 254.397L300.502 252.775C300.992 252.683 301.431 252.412 301.731 252.015C302.032 251.617 302.173 251.121 302.126 250.625C300.887 236.822 294.299 167.679 285.747 157.477Z" fill="#302E44"/>
<path d="M236.482 120.228C236.405 120.881 236.473 121.542 236.681 122.165C236.888 122.789 237.23 123.359 237.682 123.837C238.134 124.314 238.685 124.687 239.297 124.928C239.909 125.17 240.566 125.274 241.223 125.235L247.366 139.978L252.014 133.098L245.467 120.153C245.327 119.056 244.789 118.048 243.955 117.32C243.121 116.593 242.048 116.196 240.941 116.205C239.833 116.215 238.767 116.629 237.946 117.371C237.124 118.112 236.603 119.129 236.482 120.228Z" fill="#A0616A"/>
<path d="M278.587 172.322C279.24 172.244 279.868 172.024 280.427 171.677C280.986 171.331 281.462 170.866 281.821 170.316C282.181 169.766 282.415 169.143 282.508 168.493C282.6 167.843 282.549 167.18 282.358 166.551L295.284 157.15L287.502 154.24L276.42 163.614C275.384 164.005 274.527 164.762 274.013 165.742C273.499 166.722 273.363 167.856 273.63 168.929C273.897 170.002 274.549 170.941 275.462 171.566C276.376 172.191 277.488 172.46 278.587 172.322Z" fill="#A0616A"/>
<path d="M257.515 149.807C257.019 149.806 256.525 149.757 256.039 149.661C254.863 149.438 253.76 148.929 252.828 148.18C251.896 147.43 251.162 146.463 250.692 145.364L242.085 134.884C241.903 134.662 241.77 134.404 241.696 134.127C241.622 133.851 241.608 133.561 241.655 133.279C241.702 132.996 241.809 132.726 241.969 132.488C242.129 132.25 242.338 132.049 242.582 131.898L248.706 128.113C248.932 127.973 249.183 127.88 249.446 127.838C249.708 127.795 249.977 127.806 250.235 127.867C250.494 127.929 250.738 128.042 250.953 128.198C251.167 128.355 251.349 128.552 251.487 128.779L257.554 138.759L269.172 130.186C270.097 129.701 271.165 129.565 272.182 129.803C273.199 130.04 274.097 130.635 274.711 131.479C275.325 132.323 275.615 133.359 275.527 134.398C275.439 135.437 274.98 136.41 274.233 137.139L262.637 147.702C261.275 149.051 259.433 149.807 257.515 149.807Z" fill="#302E44"/>
<path d="M288.908 165.569C288.892 165.569 288.876 165.569 288.86 165.568C288.578 165.561 288.3 165.495 288.045 165.374C287.79 165.254 287.563 165.08 287.379 164.866L281.934 158.524C281.749 158.308 281.611 158.055 281.531 157.782C281.451 157.509 281.429 157.222 281.468 156.94C281.507 156.659 281.605 156.388 281.757 156.147C281.908 155.906 282.109 155.7 282.346 155.542L292.541 148.755L283.305 137.668C282.768 136.773 282.571 135.716 282.75 134.688C282.929 133.661 283.472 132.732 284.281 132.071C285.089 131.411 286.108 131.063 287.152 131.091C288.196 131.119 289.196 131.521 289.967 132.224L301.192 143.177C302.076 143.983 302.75 144.991 303.158 146.115C303.565 147.238 303.694 148.444 303.532 149.628C303.37 150.811 302.923 151.938 302.229 152.912C301.535 153.885 300.615 154.676 299.548 155.216L290.373 164.937C290.185 165.136 289.958 165.295 289.706 165.404C289.454 165.512 289.182 165.568 288.908 165.569Z" fill="#302E44"/>
<path d="M276.402 142.198C276.315 142.198 276.228 142.192 276.141 142.181C275.762 142.135 275.404 141.982 275.109 141.739C274.815 141.496 274.597 141.173 274.48 140.81L270.389 128.285C270.287 127.968 270.302 127.625 270.434 127.319C270.565 127.013 270.802 126.765 271.102 126.62L271.235 126.558C271.356 126.501 271.475 126.444 271.597 126.39C273.504 125.507 275.581 125.046 277.684 125.039C280.414 125.044 283.083 125.845 285.364 127.344C285.67 127.547 285.883 127.862 285.959 128.221C286.034 128.58 285.965 128.954 285.767 129.263L278.092 141.269C277.912 141.554 277.663 141.789 277.367 141.951C277.072 142.114 276.74 142.199 276.402 142.198Z" fill="#E6E6E6"/>
<path d="M291.821 102.601C294.247 102.601 296.214 100.637 296.214 98.2142C296.214 95.7915 294.247 93.8275 291.821 93.8275C289.395 93.8275 287.428 95.7915 287.428 98.2142C287.428 100.637 289.395 102.601 291.821 102.601Z" fill="#302E44"/>
<path d="M276.761 93.3925C273.675 93.3925 270.716 94.6165 268.534 96.7954C266.352 98.9743 265.126 101.929 265.126 105.011V109.926H271.18L274.076 105.011L274.945 109.926H293.319L288.396 105.011C288.396 101.929 287.171 98.9743 284.989 96.7954C282.807 94.6165 279.847 93.3925 276.761 93.3925Z" fill="#302E44"/>
<path d="M294.079 95.2094C294.565 93.6926 295.571 92.3953 296.92 91.5457C298.269 90.696 299.874 90.3485 301.454 90.564C304.254 91.0314 306.468 93.2785 307.786 95.7883C309.105 98.2982 309.714 101.107 310.601 103.8C311.488 106.492 312.745 109.199 314.983 110.942C317.222 112.685 320.657 113.158 322.855 111.365C322.604 113.234 321.771 114.976 320.474 116.346C319.176 117.716 317.481 118.644 315.626 118.999C313.772 119.353 311.853 119.117 310.14 118.323C308.428 117.529 307.009 116.218 306.084 114.574C304.924 112.513 304.624 110.098 304.28 107.759C303.936 105.42 303.489 103 302.104 101.083C300.72 99.1654 298.127 97.9131 295.927 98.7864L294.079 95.2094Z" fill="#302E44"/>
<path d="M151.234 101.902C147.229 101.901 143.388 100.312 140.556 97.4844C137.725 94.6564 136.134 90.8211 136.133 86.8219C136.133 84.0944 136.135 82.009 136.139 81.7124C136.266 72.37 138.623 63.1926 143.012 54.9414C135.8 64.8005 131.835 76.654 131.664 88.8622C131.66 89.1588 131.658 91.2441 131.658 93.9717C131.658 97.9709 133.249 101.806 136.081 104.634C138.913 107.462 142.754 109.051 146.759 109.052C150.05 109.05 153.251 107.976 155.875 105.993C158.499 104.01 160.403 101.225 161.298 98.0629C158.533 100.539 154.948 101.906 151.234 101.902Z" fill="#302E44"/>
<path d="M191.871 62.1627C196.501 62.3835 201.008 63.7231 205.006 66.0664C209.003 68.4098 212.371 71.6869 214.821 75.6163C217.27 79.5458 218.728 84.0102 219.069 88.6262C219.41 93.2423 218.625 97.872 216.779 102.118C219.448 98.9875 221.41 95.3192 222.531 91.3629C223.652 87.4067 223.906 83.2556 223.274 79.1928C222.643 75.1299 221.142 71.2507 218.873 67.8197C216.604 64.3887 213.621 61.4866 210.127 59.3111C206.633 57.1357 202.711 55.7381 198.627 55.2136C194.543 54.6891 190.394 55.0502 186.462 56.272C182.531 57.4939 178.91 59.5479 175.845 62.294C172.781 65.04 170.345 68.4136 168.705 72.1848C171.54 68.8545 175.103 66.2189 179.12 64.4812C183.136 62.7436 187.499 61.9503 191.871 62.1627Z" fill="#302E44"/>
<path d="M196.517 195.743C192.431 195.744 188.509 194.141 185.597 191.28C182.684 188.419 181.015 184.529 180.948 180.45C180.759 168.628 180.661 154.062 180.661 152.397C180.658 148.347 181.242 144.319 182.394 140.436L182.389 140.434C183.069 138.485 183.891 136.588 184.847 134.759C181.911 138.666 179.574 142.989 177.914 147.584L177.919 147.585C176.767 151.468 176.183 155.497 176.186 159.547C176.186 161.212 176.284 175.778 176.473 187.6C176.539 191.679 178.209 195.569 181.122 198.43C184.034 201.291 187.956 202.894 192.042 202.893C195.411 202.892 198.688 201.801 201.383 199.783C204.078 197.765 206.045 194.928 206.99 191.699C204.127 194.306 200.391 195.748 196.517 195.743Z" fill="#302E44"/>
<path d="M56.6283 260.335L62.1143 260.335L64.7246 239.204L56.627 239.204L56.6283 260.335Z" fill="#FFB8B8"/>
<path d="M72.6953 265.422L55.4525 265.423L55.4522 258.77L66.033 258.77C67.7999 258.77 69.4944 259.47 70.7438 260.718C71.9933 261.965 72.6952 263.657 72.6953 265.422Z" fill="#302E44"/>
<path d="M36.9379 260.335L42.4239 260.335L45.0342 239.204L36.9365 239.204L36.9379 260.335Z" fill="#FFB8B8"/>
<path d="M53.0049 265.422L35.762 265.423L35.7617 258.77L46.3426 258.77C48.1095 258.77 49.804 259.47 51.0534 260.718C52.3028 261.965 53.0048 263.657 53.0049 265.422Z" fill="#302E44"/>
<path d="M41.7322 253.836L36.3732 253.555C36.0969 253.54 35.8262 253.471 35.5768 253.352C35.3274 253.232 35.1043 253.064 34.9204 252.857C34.7365 252.651 34.5954 252.41 34.5054 252.149C34.4154 251.888 34.3782 251.611 34.3959 251.335L40.801 180.523L70.2967 188.471L73.1385 187.696L64.2518 250.384C64.1761 250.856 63.9415 251.288 63.5869 251.608C63.2323 251.929 62.7789 252.119 62.3014 252.147L56.5246 252.416C56.2357 252.432 55.9467 252.388 55.6757 252.287C55.4048 252.185 55.1578 252.029 54.9504 251.828C54.743 251.626 54.5797 251.384 54.4708 251.117C54.3619 250.849 54.3097 250.562 54.3177 250.273L55.3644 212.649C55.3693 212.475 55.3088 212.305 55.1947 212.174C55.0807 212.042 54.9214 211.958 54.7483 211.938C54.5752 211.917 54.4008 211.963 54.2594 212.065C54.1181 212.166 54.02 212.317 53.9847 212.488L43.8902 252.175C43.7949 252.646 43.5391 253.069 43.1662 253.372C42.7933 253.676 42.3266 253.841 41.8455 253.84C41.808 253.84 41.7702 253.839 41.7322 253.836Z" fill="#302E44"/>
<path d="M57.6134 122.583C63.6837 122.583 68.6046 117.669 68.6046 111.608C68.6046 105.546 63.6837 100.632 57.6134 100.632C51.543 100.632 46.6221 105.546 46.6221 111.608C46.6221 117.669 51.543 122.583 57.6134 122.583Z" fill="#FFB8B8"/>
<path d="M39.3132 143.853L40.5217 169.89L40.9586 179.363C40.976 179.776 41.1162 180.173 41.3613 180.506C41.6064 180.838 41.9452 181.09 42.3344 181.229L70.6778 191.482C70.9068 191.567 71.1494 191.609 71.3937 191.607C71.6728 191.608 71.9494 191.553 72.2069 191.446C72.4644 191.338 72.6975 191.179 72.8923 190.98C73.0871 190.78 73.2396 190.543 73.3407 190.283C73.4418 190.023 73.4894 189.746 73.4807 189.467L72.3187 142.651C72.2424 138.81 70.8264 135.116 68.3149 132.205C65.8034 129.295 62.3537 127.351 58.5606 126.708C58.2865 126.666 58.0075 126.625 57.7286 126.587C55.3766 126.296 52.9891 126.522 50.7342 127.251C48.4793 127.98 46.4118 129.194 44.677 130.806C42.8807 132.456 41.4692 134.48 40.5424 136.734C39.6155 138.988 39.1959 141.419 39.3132 143.853Z" fill="#FFB800"/>
<path d="M84.2173 186.286C83.5469 186.078 82.9345 185.717 82.4288 185.231C81.9231 184.745 81.5382 184.148 81.3048 183.487C81.0714 182.826 80.9959 182.119 81.0845 181.424C81.173 180.729 81.4231 180.064 81.8147 179.482L72.2031 166.72L80.4974 166.207L88.3531 178.405C89.1941 179.054 89.7793 179.979 90.0061 181.016C90.2329 182.053 90.0868 183.136 89.5934 184.077C89.1 185.017 88.2908 185.754 87.3077 186.158C86.3247 186.562 85.2306 186.607 84.2173 186.286Z" fill="#FFB8B8"/>
<path d="M77.4593 177.173C77.2047 177.069 76.9731 176.917 76.7779 176.724C76.5827 176.53 76.4278 176.3 76.3222 176.047L61.8416 141.597C61.5574 140.922 61.4092 140.198 61.4054 139.466C61.4015 138.735 61.5421 138.009 61.8191 137.332C62.0961 136.654 62.504 136.038 63.0197 135.518C63.5353 134.998 64.1485 134.585 64.8242 134.302C65.4999 134.018 66.2249 133.871 66.9577 133.868C67.6905 133.864 68.4168 134.005 69.095 134.283C69.7732 134.56 70.3901 134.967 70.9104 135.483C71.4307 135.998 71.8442 136.611 72.1273 137.286L86.6079 171.737C86.8219 172.247 86.8243 172.822 86.6145 173.335C86.4047 173.847 85.9999 174.256 85.4889 174.471L79.0602 177.165C78.8072 177.272 78.5354 177.328 78.2606 177.329C77.9858 177.33 77.7134 177.277 77.4593 177.173Z" fill="#FFB800"/>
<path d="M54.0799 175.957L67.9881 149.365C68.2563 148.854 68.7168 148.469 69.2684 148.296C69.82 148.124 70.4177 148.176 70.9305 148.443L91.1183 158.971C91.6305 159.239 92.0153 159.699 92.1884 160.249C92.3615 160.8 92.3088 161.397 92.0417 161.909L78.1334 188.501C77.8652 189.013 77.4048 189.397 76.8532 189.57C76.3016 189.743 75.7038 189.69 75.1911 189.423L55.0033 178.895C54.4911 178.628 54.1063 178.168 53.9332 177.617C53.7601 177.066 53.8128 176.469 54.0799 175.957Z" fill="#302E44"/>
<path d="M63.407 163.808C63.1598 163.152 62.7624 162.563 62.2466 162.087C61.7308 161.612 61.1109 161.264 60.4363 161.07C59.7617 160.876 59.0511 160.843 58.3613 160.972C57.6714 161.102 57.0214 161.39 56.463 161.815L43.1369 152.987L43.1143 161.286L55.7724 168.396C56.4712 169.196 57.4297 169.725 58.4799 169.89C59.53 170.054 60.6047 169.845 61.5156 169.297C62.4264 168.75 63.1152 167.9 63.461 166.896C63.8069 165.892 63.7878 164.799 63.407 163.808Z" fill="#FFB8B8"/>
<path d="M46.5584 165.674L35.6675 157.06C34.4893 156.665 33.4247 155.99 32.5651 155.094C31.7055 154.197 31.0766 153.106 30.7323 151.914C30.388 150.721 30.3386 149.463 30.5884 148.247C30.8382 147.032 31.3797 145.895 32.1664 144.934L42.0551 131.993C42.7423 131.154 43.7087 130.591 44.7777 130.405C45.8468 130.22 46.947 130.425 47.8772 130.982C48.8075 131.54 49.5057 132.413 49.8442 133.443C50.1827 134.472 50.1389 135.589 49.7208 136.589L41.8966 149.369L53.3949 154.815C53.6623 154.941 53.8997 155.123 54.0915 155.348C54.2833 155.573 54.425 155.836 54.5074 156.12C54.5898 156.404 54.611 156.702 54.5695 156.995C54.528 157.287 54.4248 157.568 54.2667 157.818L49.6252 165.152C49.4683 165.4 49.2611 165.612 49.017 165.774C48.7729 165.937 48.4973 166.046 48.2081 166.096C48.1966 166.098 48.1851 166.099 48.1735 166.101C47.8894 166.144 47.5994 166.128 47.3216 166.055C47.0438 165.981 46.7841 165.852 46.5584 165.674Z" fill="#FFB800"/>
<path d="M49.3081 118.957C49.2609 118.819 49.2459 118.673 49.2643 118.528C49.2827 118.384 49.334 118.245 49.4142 118.124C49.4943 118.002 49.6013 117.901 49.7269 117.827C49.8525 117.753 49.9934 117.709 50.1388 117.697C50.4365 117.714 50.7278 117.79 50.9952 117.921C51.2625 118.053 51.5004 118.238 51.6944 118.464C52.0922 118.922 52.5552 119.319 53.0688 119.642C53.6005 119.91 54.3216 119.872 54.6247 119.361C54.9093 118.882 54.7143 118.241 54.542 117.684C54.1035 116.268 53.8581 114.8 53.8126 113.318C53.7629 111.665 53.9966 109.939 54.9133 108.649C56.0965 106.985 58.2121 106.353 60.2143 106.399C62.2164 106.445 64.1861 107.062 66.1693 107.452C66.854 107.587 67.6587 107.656 68.1167 107.126C68.6036 106.562 68.4248 105.65 68.2176 104.89C67.6802 102.916 67.1101 100.875 65.8614 99.2805C64.5113 97.624 62.5827 96.5398 60.4641 96.2463C58.4301 95.9947 56.3653 96.2288 54.4395 96.9293C51.302 97.9167 48.5412 99.8373 46.5263 102.434C44.4493 105.195 43.5518 108.666 44.03 112.086C44.4973 115.065 46.0782 117.757 48.454 119.618L49.3081 118.957Z" fill="#302E44"/>
<path d="M188.517 260.422C185.593 259.151 183.004 257.218 180.956 254.776C178.908 252.334 177.457 249.451 176.716 246.353C175.975 243.255 175.965 240.027 176.688 236.925C177.41 233.823 178.844 230.931 180.878 228.477C178.52 230.196 176.556 232.396 175.115 234.93C173.674 237.465 172.789 240.277 172.52 243.18C172.25 246.082 172.602 249.008 173.552 251.765C174.501 254.521 176.027 257.044 178.028 259.166C180.029 261.289 182.459 262.962 185.157 264.075C187.855 265.187 190.759 265.715 193.676 265.621C196.594 265.528 199.458 264.815 202.079 263.532C204.7 262.249 207.017 260.423 208.878 258.177C205.976 260.295 202.57 261.616 198.997 262.01C195.425 262.404 191.811 261.857 188.517 260.422Z" fill="#302E44"/>
</svg>
